<svg width="16" height="16" viewBox="0 0 16 16" fill="none" xmlns="http://www.w3.org/2000/svg">
<path d="M10.6187 1.75H5.38125C3.10625 1.75 1.75 3.10625 1.75 5.38125V10.6125C1.75 12.8938 3.10625 14.25 5.38125 14.25H10.6125C12.8875 14.25 14.2437 12.8938 14.2437 10.6188V5.38125C14.25 3.10625 12.8937 1.75 10.6187 1.75ZM10.9875 6.5625L7.44375 10.1063C7.35625 10.1938 7.2375 10.2438 7.1125 10.2438C6.9875 10.2438 6.86875 10.1938 6.78125 10.1063L5.0125 8.3375C4.83125 8.15625 4.83125 7.85625 5.0125 7.675C5.19375 7.49375 5.49375 7.49375 5.675 7.675L7.1125 9.1125L10.325 5.9C10.5062 5.71875 10.8062 5.71875 10.9875 5.9C11.1687 6.08125 11.1687 6.375 10.9875 6.5625Z" fill="#27AE60"/>
</svg>
