<svg width="91" height="32" viewBox="0 0 91 32" fill="none" xmlns="http://www.w3.org/2000/svg">
<path d="M21.5915 21.7103C22.23 21.6939 22.9213 21.8191 23.6653 22.0839C24.4093 22.3487 25.1386 22.7035 25.8556 23.1474C26.5727 23.5912 27.2689 23.9032 27.9467 24.0823C28.6245 24.2614 29.1209 24.2669 29.4383 24.0988C29.7546 23.9307 29.9188 23.6956 29.9311 23.3968C29.9433 23.0968 29.9494 22.9441 29.9494 22.9386V21.7103C29.9494 21.2819 29.8955 20.9874 29.7876 20.827C29.6626 20.6666 29.4592 20.5974 29.1785 20.6183C29.2863 20.5491 29.4886 20.4931 29.7876 20.4502C30.588 20.236 31.2266 19.8855 31.7046 19.3988V23.0836C31.7108 23.6187 31.5833 24.1109 31.3234 24.5613C31.0636 25.0118 30.6567 25.3106 30.1014 25.46C29.5462 25.6094 28.9002 25.6182 28.1624 25.4842C27.4245 25.3501 26.7099 25.092 26.0174 24.7096C25.3249 24.3273 24.5711 23.9395 23.756 23.5451C22.9409 23.1518 22.219 22.9243 21.589 22.8628C20.959 22.8013 20.4344 22.8804 20.0177 23.1001C19.5997 23.3199 19.2565 23.6231 18.9881 24.0109C18.7197 24.3987 18.4745 24.8228 18.2539 25.2831C18.325 24.7206 18.3912 24.3119 18.4512 24.0548C18.5113 23.7978 18.6253 23.4814 18.7957 23.1034C18.966 22.7266 19.3154 22.4036 19.8436 22.1355C20.3719 21.8675 20.9553 21.7257 21.5951 21.7103H21.5915ZM27.2247 18.9165C27.2247 18.7286 27.3007 18.5671 27.4527 18.4309C27.6047 18.2947 27.78 18.2266 27.9761 18.2266C28.1722 18.2266 28.3389 18.2903 28.4737 18.4188C28.6085 18.5474 28.6747 18.7111 28.6747 18.9088C28.6747 19.1066 28.6036 19.2648 28.4602 19.3988C28.3168 19.5328 28.1465 19.5999 27.9491 19.5999C27.7518 19.5999 27.5814 19.5317 27.438 19.3955C27.2946 19.2593 27.2235 19.1 27.2235 18.9176L27.2247 18.9165Z" fill="#226AB2"/>
<path d="M34.2114 21.472H34.6956V23.0298H32.5911V14.6406C32.9796 14.9724 33.3302 15.1735 33.6439 15.2427C33.9577 15.3119 34.2935 15.3525 34.6514 15.3635L34.2127 15.4844V21.4731L34.2114 21.472Z" fill="#226AB2"/>
<path d="M39.3701 21.4693H40.1852V23.0271H34.6316V21.4693H37.7841V19.9114C37.7363 19.6653 37.5009 19.5181 37.0768 19.4697C37.1308 19.4434 37.3073 19.4027 37.6051 19.3489C37.903 19.2951 38.1959 19.1995 38.4827 19.0599C38.7695 18.9204 39.0649 18.6556 39.3689 18.2656V21.4693H39.3701ZM35.3486 24.7443C35.3486 24.5619 35.4246 24.4026 35.5766 24.2664C35.7286 24.1302 35.9039 24.062 36.1012 24.062C36.2985 24.062 36.464 24.1258 36.5988 24.2543C36.7337 24.3828 36.7998 24.5454 36.7998 24.7443C36.7998 24.9432 36.7287 25.1003 36.5853 25.2343C36.4419 25.3683 36.2716 25.4353 36.0742 25.4353C35.8769 25.4353 35.7065 25.3672 35.5631 25.231C35.4197 25.0948 35.3486 24.9322 35.3486 24.7454V24.7443ZM37.0499 24.7443C37.0499 24.5619 37.1259 24.4026 37.2779 24.2664C37.4298 24.1302 37.6051 24.062 37.8025 24.062C37.9998 24.062 38.1653 24.1258 38.3001 24.2543C38.4349 24.3828 38.5011 24.5454 38.5011 24.7443C38.5011 24.9432 38.43 25.1003 38.2866 25.2343C38.1432 25.3683 37.9728 25.4353 37.7755 25.4353C37.5781 25.4353 37.4078 25.3672 37.2644 25.231C37.121 25.0948 37.0499 24.9322 37.0499 24.7454V24.7443Z" fill="#226AB2"/>
<path d="M42.0887 18.0006C42.5336 17.8479 42.8694 17.6974 43.0962 17.5469V18.8389H46.1322C47.9646 18.8224 48.8814 19.4354 48.8814 20.6769V21.4712H49.4453V23.0291H40.157V21.4712H41.3753V18.4609L40.8826 18.2599C41.2405 18.239 41.6425 18.1511 42.0874 17.9984L42.0887 18.0006ZM47.4229 21.4723V20.7659C47.4229 20.6319 47.3493 20.5242 47.2035 20.4407C47.0576 20.3583 46.9032 20.3165 46.7426 20.3165H43.106V21.4723H47.4229Z" fill="#226AB2"/>
<path d="M54.1753 21.4707H54.9904V23.0286H49.4368V21.4707H52.5892V19.9129C52.5414 19.6668 52.3061 19.5195 51.882 19.4712C51.936 19.4448 52.1124 19.4042 52.4103 19.3504C52.7081 19.2965 53.0011 19.2009 53.2879 19.0614C53.5747 18.9219 53.8701 18.6571 54.1741 18.2671V21.4707H54.1753ZM51.4261 17.7134C51.4261 17.5255 51.5021 17.364 51.654 17.2278C51.806 17.0916 51.9813 17.0234 52.1774 17.0234C52.3735 17.0234 52.5402 17.0872 52.675 17.2157C52.8099 17.3442 52.8761 17.5079 52.8761 17.7057C52.8761 17.9034 52.805 18.0617 52.6616 18.1957C52.5182 18.3297 52.3478 18.3967 52.1504 18.3967C51.9531 18.3967 51.7827 18.3286 51.6393 18.1924C51.4959 18.0562 51.4248 17.8969 51.4248 17.7145L51.4261 17.7134Z" fill="#226AB2"/>
<path d="M56.8901 14.9858L57.3914 14.6562V23.029H54.929V21.4711H55.7624V15.4978L55.2967 15.3693C55.5479 15.3693 55.7649 15.3451 55.9499 15.2968C55.9978 15.2858 56.048 15.2759 56.1019 15.2649C56.1559 15.2539 56.2061 15.2352 56.2539 15.2089C56.3201 15.1924 56.4059 15.166 56.5138 15.1287C56.6216 15.0913 56.7467 15.043 56.8901 14.9836V14.9858Z" fill="#226AB2"/>
<path d="M59.8176 23.0298H58.196V14.6406C58.5846 14.9724 58.9351 15.1735 59.2489 15.2427C59.5627 15.3119 59.8985 15.3525 60.2564 15.3635L59.8176 15.4844V23.0309V23.0298Z" fill="#226AB2"/>
<path d="M38.4007 16.4788L38.614 17.1654C38.7071 17.4642 38.5907 17.6356 38.2671 17.7169C38.0612 17.7686 37.8749 17.6818 37.7143 17.5038C37.6763 17.7883 37.6212 17.8499 37.3454 17.918C37.0218 17.9993 36.8232 17.9059 36.7387 17.6334L36.5254 16.9468L36.9286 16.8457L37.1174 17.4533C37.1444 17.5411 37.1983 17.5752 37.2669 17.5587C37.4238 17.5192 37.4569 17.3884 37.414 17.2467L37.2633 16.7622L37.6665 16.6611L37.8173 17.1456C37.8638 17.295 37.9778 17.3906 38.1347 17.3511C38.2034 17.3335 38.2168 17.2742 38.1887 17.1852L37.9999 16.5776L38.4031 16.4766L38.4007 16.4788Z" fill="#226AB2"/>
<path d="M3.26211 30.5393V30.7535H2.92927C2.81833 30.7535 2.71144 30.7173 2.61267 30.6437C2.51796 30.5701 2.45978 30.4767 2.4476 30.3591C2.42731 30.1691 2.39348 30.0251 2.34071 29.934C2.25412 29.79 2.11882 29.7197 1.9294 29.7197C1.7941 29.7164 1.67774 29.7571 1.58303 29.8373C1.49237 29.9175 1.44772 30.0142 1.44772 30.1284H2.18512L2.19729 30.5393C2.19729 30.7997 2.09041 31.0205 1.87663 31.204C1.66691 31.3875 1.40714 31.4819 1.10677 31.4819C0.806398 31.4819 0.550679 31.3886 0.336903 31.204C0.123127 31.0194 0.0162396 30.7997 0.0162396 30.536C0.0121806 30.4525 0.00811807 30.3185 0 30.1284H0.284133C0.284133 30.1987 0.288192 30.3361 0.292251 30.5393C0.292251 30.736 0.370727 30.9041 0.530382 31.0403C0.691391 31.1776 0.884873 31.2479 1.10677 31.2479C1.32866 31.2479 1.52214 31.1776 1.68315 31.037C1.84416 30.8964 1.92263 30.7294 1.92263 30.5327L1.91452 30.3427H1.14871C1.14871 29.7812 1.41255 29.5 1.93481 29.5C2.23924 29.5 2.45707 29.6099 2.58561 29.834C2.64785 29.9373 2.6925 30.1043 2.72091 30.3284C2.73309 30.4459 2.86027 30.5393 2.98069 30.5393H3.26482H3.26211ZM1.031 31.9906H0.726571V31.7302H1.031V31.9906ZM1.53702 31.9906H1.2326V31.7302H1.53702V31.9906Z" fill="#226AB2"/>
<path d="M4.19277 30.3252C4.19277 30.5922 3.99523 30.7603 3.63262 30.7603H3.09277V30.546H3.62856C3.78957 30.546 3.90864 30.4691 3.90864 30.3186C3.90864 30.3483 3.90458 30.0912 3.89646 29.5397H4.1806C4.18871 30.0681 4.19277 30.3285 4.19277 30.3252ZM4.19277 29.2727H3.88834V29.0156H4.19277V29.2727Z" fill="#226AB2"/>
<path d="M6.06543 30.4475C6.06543 30.7387 5.96666 30.976 5.77317 31.166C5.57969 31.3561 5.31992 31.4638 4.99925 31.4868L4.87613 31.2759C5.08178 31.2759 5.26309 31.2286 5.41598 31.132C5.5594 31.0386 5.66764 30.9144 5.72853 30.7573H5.3578C5.16838 30.7573 5.01549 30.7002 4.89642 30.5837C4.77736 30.4673 4.72729 30.3234 4.72729 30.1597C4.73135 29.9421 4.82201 29.7784 4.98302 29.6653C5.1102 29.5752 5.25903 29.5312 5.4241 29.5312C5.85165 29.5312 6.06678 29.7081 6.06678 30.0597V30.4475H6.06543ZM5.78129 30.5442L5.77317 29.9861C5.76912 29.7883 5.66223 29.6884 5.45251 29.6884C5.34156 29.6884 5.25091 29.7246 5.17244 29.8026C5.08584 29.8861 5.03714 29.9993 5.03714 30.1432C5.03714 30.3673 5.19003 30.5442 5.43222 30.5442H5.78265H5.78129Z" fill="#226AB2"/>
<path d="M7.94195 30.5421C7.93789 30.5784 7.93789 30.652 7.93789 30.7564H7.57122C7.41021 30.7564 7.28303 30.686 7.18832 30.5487C7.16802 30.8124 7.05708 31.0266 6.8636 31.1969C6.67011 31.3672 6.42251 31.4606 6.12214 31.4815C6.09373 31.4408 6.05179 31.3716 5.99902 31.2738C6.26692 31.2738 6.48475 31.1969 6.65794 31.0431C6.82301 30.8926 6.90554 30.7058 6.90554 30.4817L6.90148 29.5391H7.18561L7.18967 30.2037C7.19373 30.3037 7.23432 30.3872 7.31686 30.4542C7.39127 30.5114 7.46568 30.541 7.54281 30.541H7.94195V30.5421Z" fill="#226AB2"/>
<path d="M9.60116 30.7557H9.23449C9.11137 30.7557 9.00854 30.7118 8.92195 30.6283C8.87189 30.5811 8.83942 30.5349 8.81912 30.4844C8.74065 30.6481 8.53093 30.7448 8.30497 30.7546H7.84766V30.5404H7.99108C8.1142 30.5371 8.19268 30.5371 8.22515 30.5371C8.30362 30.5371 8.37398 30.5206 8.43893 30.4866C8.52146 30.4426 8.56205 30.3833 8.56205 30.3064C8.57017 30.3602 8.57016 30.1021 8.55799 29.5341H8.84212C8.84212 29.7483 8.84618 29.9581 8.85024 30.1691C8.8543 30.2855 8.89489 30.38 8.97742 30.4503C9.04778 30.5108 9.12625 30.5404 9.20338 30.5404H9.59845V30.7546L9.60116 30.7557ZM8.59723 29.2649H8.2928V29.0078H8.59723V29.2649ZM9.10325 29.2649H8.79476V29.0078H9.10325V29.2649Z" fill="#226AB2"/>
<path d="M12.3597 30.5444V30.7587H9.46558V30.5444H11.3341C11.3219 30.3038 11.2272 30.1094 11.0581 29.9633C10.8889 29.8128 10.6833 29.7391 10.437 29.7391C10.2476 29.7391 10.0582 29.7864 9.86877 29.8765L9.73753 29.6831C9.73753 29.6831 9.74971 29.6798 9.75783 29.6765L10.7415 28.8438L10.9309 28.9943L10.2151 29.559C10.3099 29.5458 10.4005 29.5392 10.4871 29.5392C11.0675 29.5392 11.4261 29.793 11.5695 30.3049C11.5898 30.3818 11.606 30.462 11.6142 30.5455H12.3597V30.5444Z" fill="#226AB2"/>
<path d="M13.1078 30.3219C13.1078 30.5889 12.9103 30.757 12.5477 30.757H12.2798V30.5427H12.5436C12.7046 30.5427 12.8237 30.4658 12.8237 30.3153C12.8237 30.1044 12.8196 29.8176 12.8156 29.4562C12.8115 29.0387 12.8075 28.7509 12.8075 28.5938H13.0916C13.0916 28.7476 13.0957 29.0354 13.0997 29.4595C13.1038 29.8209 13.1078 30.1077 13.1078 30.3219Z" fill="#226AB2"/>
<path d="M14.1621 31.4468H13.5032L13.5735 31.3435H13.7629C13.7142 31.2963 13.6885 31.2435 13.6885 31.1831C13.6885 31.0491 13.8035 30.9458 13.9646 30.9458C14.039 30.9458 14.0999 30.9722 14.154 31.026L14.0917 31.0996C14.0552 31.0634 14.0133 31.0425 13.9686 31.0425C13.882 31.0425 13.8374 31.093 13.8374 31.1963C13.8374 31.293 13.8955 31.3435 14.0146 31.3435H14.158L14.1621 31.4468ZM14.8048 30.0999C14.8048 30.2932 14.706 30.4503 14.5044 30.5745C14.3069 30.6942 14.0511 30.7547 13.7386 30.7547H13.5411V30.5371H13.7224C13.9158 30.5371 14.0809 30.5075 14.2243 30.447C14.4219 30.3635 14.5166 30.2295 14.5166 30.0526C14.5166 30.0054 14.5085 29.5176 14.4963 28.5914H14.7804L14.8048 30.0988V30.0999ZM14.0349 30.3207C13.9605 30.3679 13.8658 30.3679 13.7467 30.3679C13.7467 30.0735 13.7386 29.4791 13.7264 28.5859H14.0106L14.0349 30.3207Z" fill="#226AB2"/>
<path d="M15.6435 30.757H15.3594L15.3391 28.5938H15.6232L15.6435 30.757Z" fill="#226AB2"/>
<path d="M19.7308 30.7557H19.1585C19.0232 31.2007 18.5902 31.4809 18.0139 31.4809C17.6675 31.4809 17.3834 31.3908 17.1615 31.2062C16.9274 31.0161 16.811 30.7612 16.811 30.4437V30.0197H17.0952V30.4437C17.0952 30.6744 17.1858 30.8689 17.3631 31.0293C17.5444 31.1897 17.7622 31.2699 18.022 31.2699C18.4333 31.2699 18.7472 31.0656 18.8663 30.7546H18.4631C18.2777 30.7546 18.1248 30.6975 18.0057 30.5811C17.8867 30.4646 17.8326 30.3207 17.8407 30.157C17.8488 29.9395 17.9354 29.7758 18.0964 29.6626C18.2236 29.5725 18.3684 29.5286 18.528 29.5286C18.961 29.5286 19.1788 29.7054 19.1788 30.057V30.5415H19.7308V30.7557ZM18.4265 29.2649H18.1221V29.0078H18.4265V29.2649ZM18.892 30.5415L18.8839 29.9834C18.8798 29.7856 18.7729 29.6857 18.5632 29.6857C18.4522 29.6857 18.3575 29.7219 18.2791 29.7999C18.1965 29.8834 18.1519 29.9966 18.1478 30.1405C18.1356 30.3646 18.3048 30.5415 18.5388 30.5415H18.8933H18.892ZM18.9285 29.2649H18.6241V29.0078H18.9285V29.2649Z" fill="#226AB2"/>
<path d="M20.6742 30.3246C20.6742 30.5916 20.4767 30.7596 20.1141 30.7596H19.5742V30.5454H20.11C20.271 30.5454 20.3901 30.4685 20.3901 30.318C20.3901 30.3477 20.386 30.0906 20.3779 29.5391H20.662C20.6702 30.0675 20.6742 30.3279 20.6742 30.3246ZM20.0112 31.254H19.7068V30.997H20.0112V31.254ZM20.5173 31.254H20.2128V30.997H20.5173V31.254Z" fill="#226AB2"/>
<path d="M23.131 30.7584H22.5059C22.3787 31.1726 22.0039 31.4473 21.4803 31.4835C21.4559 31.4396 21.414 31.3737 21.3612 31.2759C21.5669 31.2759 21.7482 31.2286 21.9011 31.132C22.0445 31.0386 22.1527 30.9144 22.2136 30.7573H21.8429C21.6535 30.7573 21.5006 30.7002 21.3815 30.5837C21.2625 30.4673 21.2124 30.3234 21.2124 30.1597C21.2165 29.9421 21.3071 29.7784 21.4681 29.6653C21.5953 29.5752 21.7441 29.5312 21.9092 29.5312C22.3368 29.5312 22.5519 29.7081 22.5519 30.0597V30.5442H23.1323V30.7584H23.131ZM22.2664 30.5442V29.9861C22.2664 29.7883 22.1473 29.6884 21.9376 29.6884C21.8267 29.6884 21.736 29.7246 21.6575 29.8026C21.5709 29.8861 21.5222 29.9993 21.5222 30.1432C21.5222 30.3673 21.6738 30.5442 21.9173 30.5442H22.2677H22.2664Z" fill="#226AB2"/>
<path d="M26.8815 30.5398V30.754H26.4701C26.2848 30.754 26.1495 30.6705 26.0629 30.5035C25.9966 30.687 25.7869 30.8013 25.5406 30.8013C25.4013 30.8013 25.289 30.7815 25.2118 30.7441C25.1212 30.7013 25.0468 30.631 24.9859 30.5299C24.9115 30.7068 24.7383 30.7936 24.4717 30.7936C24.3364 30.7936 24.2241 30.7771 24.147 30.743C24.0807 30.7134 24.0239 30.6694 23.9738 30.6057V30.7529H23.043V30.5387H23.6938V30.0168C23.6938 29.9136 23.6938 29.7828 23.6897 29.629H23.9738V30.2135C23.9779 30.4607 24.143 30.5848 24.4596 30.5848C24.6206 30.5848 24.7396 30.5079 24.7396 30.3574C24.7396 30.2871 24.7356 30.0432 24.7275 29.629H25.0116C25.0116 29.7565 25.0116 29.9498 25.0157 30.2135C25.0197 30.3366 25.0698 30.431 25.1645 30.4948C25.2511 30.5552 25.3701 30.5848 25.519 30.5848C25.68 30.5848 25.8112 30.5046 25.8112 30.3574C25.8112 30.2937 25.8072 30.0201 25.7991 29.5312H26.0832C26.0832 29.6752 26.0872 29.896 26.0913 30.1959C26.0954 30.2992 26.1414 30.386 26.2225 30.453C26.2929 30.5101 26.37 30.5365 26.4485 30.5365H26.8855L26.8815 30.5398Z" fill="#226AB2"/>
<path d="M28.5606 30.7557H28.194C28.0708 30.7557 27.968 30.7118 27.8814 30.6283C27.8314 30.5811 27.7989 30.5349 27.7786 30.4844C27.7001 30.6481 27.4904 30.7448 27.2644 30.7546H26.8071V30.5404H26.9505C27.0737 30.5371 27.1521 30.5371 27.1846 30.5371C27.2631 30.5371 27.3334 30.5206 27.3984 30.4866C27.4809 30.4426 27.5215 30.3833 27.5215 30.3064C27.5296 30.3602 27.5296 30.1021 27.5175 29.5341H27.8016C27.8016 29.7483 27.8057 29.9581 27.8097 30.1691C27.8138 30.2855 27.8544 30.38 27.9369 30.4503C28.0073 30.5108 28.0857 30.5404 28.1628 30.5404H28.5579V30.7546L28.5606 30.7557ZM27.5567 29.2649H27.2523V29.0078H27.5567V29.2649ZM28.0627 29.2649H27.7542V29.0078H28.0627V29.2649Z" fill="#226AB2"/>
<path d="M29.3061 30.3219C29.3061 30.5889 29.1085 30.757 28.7459 30.757H28.478V30.5427H28.7419C28.9029 30.5427 29.0219 30.4658 29.0219 30.3153C29.0219 30.1044 29.0179 29.8176 29.0138 29.4562C29.0098 29.0387 29.0057 28.7509 29.0057 28.5938H29.2898C29.2898 28.7476 29.2939 29.0354 29.298 29.4595C29.302 29.8209 29.3061 30.1077 29.3061 30.3219Z" fill="#226AB2"/>
<path d="M30.145 30.757H29.8609L29.8406 28.5938H30.1247L30.145 30.757Z" fill="#226AB2"/>
<path d="M32.019 30.4475C32.019 30.7387 31.9203 30.976 31.7268 31.166C31.5333 31.3561 31.2735 31.4638 30.9529 31.4868L30.8297 31.2759C31.0354 31.2759 31.2167 31.2286 31.3696 31.132C31.513 31.0386 31.6213 30.9144 31.6821 30.7573H31.3114C31.122 30.7573 30.9691 30.7002 30.85 30.5837C30.731 30.4673 30.6809 30.3234 30.6809 30.1597C30.685 29.9421 30.7756 29.7784 30.9366 29.6653C31.0638 29.5752 31.2126 29.5312 31.3777 29.5312C31.8053 29.5312 32.0204 29.7081 32.0204 30.0597V30.4475H32.019ZM31.7349 30.5442L31.7268 29.9861C31.7227 29.7883 31.6158 29.6884 31.4061 29.6884C31.2952 29.6884 31.2045 29.7246 31.1261 29.8026C31.0395 29.8861 30.9907 29.9993 30.9907 30.1432C30.9907 30.3673 31.1423 30.5442 31.3858 30.5442H31.7363H31.7349Z" fill="#226AB2"/>
<path d="M35.7802 30.4974C35.7477 30.6578 35.603 30.7578 35.4014 30.7578H34.1417C33.8251 30.7578 33.5856 30.6545 33.4219 30.4469C33.2866 30.2766 33.2163 30.0525 33.2041 29.7745L33.1919 29.5372H33.4341L33.4463 29.7745C33.4584 30.069 33.5531 30.2821 33.7345 30.4128C33.8535 30.4996 33.9902 30.5436 34.1417 30.5436H35.331C35.442 30.5436 35.4961 30.4799 35.4961 30.3568C35.4961 30.2832 35.492 30.0085 35.4798 29.5372H35.7721C35.7761 29.7075 35.7802 30.0283 35.7802 30.4963V30.4974ZM34.3893 29.5383H34.0849V29.2812H34.3893V29.5383ZM34.8913 29.5383H34.5868V29.2812H34.8913V29.5383Z" fill="#226AB2"/>
<path d="M37.1146 30.757H36.7601C36.6451 30.757 36.5463 30.724 36.4678 30.6603C36.3772 30.59 36.3271 30.49 36.3271 30.3626L36.3149 28.5938H36.5991L36.6113 30.3318C36.6113 30.4559 36.6775 30.5252 36.8047 30.5427H37.1132V30.757H37.1146Z" fill="#226AB2"/>
<path d="M38.8357 30.1284C38.8357 30.5195 38.5841 30.7568 38.1565 30.7568H37.0078V30.5426H37.6045C37.4935 30.4262 37.4354 30.2888 37.4354 30.1284C37.4354 29.7406 37.6951 29.5 38.1227 29.5C38.3405 29.5 38.5178 29.567 38.6531 29.7C38.7721 29.8175 38.8344 29.9603 38.8344 30.1273L38.8357 30.1284ZM38.5557 30.1251C38.5557 29.9878 38.511 29.8779 38.4244 29.7944C38.3459 29.7241 38.2512 29.6879 38.1403 29.6879C38.0293 29.6879 37.9346 29.7241 37.8643 29.7944C37.7858 29.8713 37.7452 29.9812 37.7452 30.1251C37.7452 30.269 37.7899 30.3756 37.8764 30.4558C37.9549 30.5261 38.0496 30.5624 38.1606 30.5624C38.2715 30.5624 38.3662 30.5261 38.4366 30.4558C38.5151 30.3789 38.5557 30.269 38.5557 30.1251Z" fill="#226AB2"/>
<path d="M41.2926 30.7584H40.6675C40.5403 31.1726 40.1655 31.4473 39.6419 31.4835C39.6176 31.4396 39.5756 31.3737 39.5229 31.2759C39.7285 31.2759 39.9098 31.2286 40.0627 31.132C40.2061 31.0386 40.3144 30.9144 40.3753 30.7573H40.0045C39.8151 30.7573 39.6622 30.7002 39.5431 30.5837C39.4241 30.4673 39.374 30.3234 39.374 30.1597C39.3781 29.9421 39.4687 29.7784 39.6297 29.6653C39.7569 29.5752 39.9058 29.5312 40.0708 29.5312C40.4984 29.5312 40.7135 29.7081 40.7135 30.0597V30.5442H41.2939V30.7584H41.2926ZM40.428 30.5442V29.9861C40.428 29.7883 40.309 29.6884 40.0992 29.6884C39.9883 29.6884 39.8976 29.7246 39.8192 29.8026C39.7326 29.8861 39.6839 29.9993 39.6839 30.1432C39.6839 30.3673 39.8354 30.5442 40.0789 30.5442H40.4294H40.428Z" fill="#226AB2"/>
<path d="M42.7322 30.7568H42.3655C42.2424 30.7568 42.1396 30.7129 42.053 30.6294C42.0029 30.5822 41.9705 30.536 41.9502 30.4855C41.8717 30.6492 41.662 30.7459 41.436 30.7558H41.1641V30.5415H41.3576C41.432 30.5415 41.5023 30.525 41.5713 30.491C41.6539 30.4437 41.6944 30.3844 41.6944 30.3075C41.6944 29.8428 41.6863 29.2682 41.6742 28.5859H41.9583C41.9623 29.0375 41.9664 29.5791 41.9786 30.2108C41.9826 30.3009 42.0286 30.3811 42.1098 30.4514C42.1842 30.5119 42.2587 30.5415 42.3358 30.5415H42.7309V30.7558L42.7322 30.7568Z" fill="#226AB2"/>
<path d="M45.2353 30.7533H44.4208C44.2557 30.7533 44.1163 30.6994 44.0013 30.5929C43.7591 30.6994 43.5197 30.7533 43.2937 30.7533H42.6145V30.539H43.2897C43.4669 30.539 43.6523 30.5028 43.8417 30.4292C43.6766 30.2655 43.5373 30.1446 43.4222 30.071C43.245 29.9611 43.0596 29.8974 42.8621 29.8875V29.614C43.1056 29.4272 43.4507 29.3327 43.9039 29.336C44.2043 29.3393 44.4762 29.3931 44.7225 29.503C44.874 29.5667 44.9863 29.637 45.0594 29.7074C44.8578 30.0216 44.5737 30.2819 44.2029 30.4929C44.2476 30.5193 44.3017 30.5368 44.3721 30.5401H45.2366V30.7544L45.2353 30.7533ZM44.7252 29.7535C44.6508 29.7172 44.5804 29.6799 44.5114 29.6436C44.3342 29.5766 44.1366 29.5437 43.9188 29.5437C43.7294 29.5437 43.5684 29.5601 43.4331 29.5909C43.3384 29.614 43.2234 29.6546 43.0948 29.7118C43.4155 29.7821 43.7334 29.9886 44.0419 30.3336C44.3179 30.1831 44.548 29.9897 44.7252 29.7557V29.7535Z" fill="#226AB2"/>
<path d="M47.3881 30.7539H46.8902C46.7793 30.9583 46.5777 31.0582 46.2814 31.0582C45.9851 31.0582 45.7916 30.9583 45.6644 30.7539H45.134V30.5397H45.5792C45.5751 30.5034 45.5711 30.4661 45.5711 30.4298C45.5711 30.042 45.8268 29.8047 46.2543 29.8047C46.4722 29.8047 46.6494 29.8684 46.7806 29.998C46.9038 30.1189 46.966 30.2617 46.966 30.4298C46.966 30.4661 46.966 30.5034 46.962 30.5397H47.3814L47.3895 30.7539H47.3881ZM46.6765 30.4298C46.6765 30.2925 46.6359 30.1793 46.5493 30.0958C46.4708 30.0255 46.3761 29.9926 46.2651 29.9926C46.1542 29.9926 46.0554 30.0255 45.9851 30.0958C45.9066 30.176 45.8701 30.2859 45.8701 30.4298C45.8701 30.5737 45.9147 30.6803 46.0013 30.7605C46.0798 30.8308 46.1745 30.8671 46.2854 30.8671C46.3964 30.8671 46.4911 30.8297 46.5615 30.7605C46.6399 30.6803 46.6765 30.5704 46.6765 30.4298Z" fill="#226AB2"/>
<path d="M48.1418 30.3219C48.1418 30.5889 47.9442 30.757 47.5816 30.757H47.3137V30.5427H47.5776C47.7386 30.5427 47.8576 30.4658 47.8576 30.3153C47.8576 30.1044 47.8536 29.8176 47.8495 29.4562C47.8455 29.0387 47.8414 28.7509 47.8414 28.5938H48.1255C48.1255 28.7476 48.1296 29.0354 48.1336 29.4595C48.1377 29.8209 48.1418 30.1077 48.1418 30.3219Z" fill="#226AB2"/>
<path d="M48.9817 30.757H48.6975L48.6772 28.5938H48.9614L48.9817 30.757Z" fill="#226AB2"/>
<path d="M52.0762 30.7608H51.6608C51.3645 30.7608 51.2198 30.6366 51.2252 30.3927H50.6204C50.3078 30.3927 50.1509 30.2323 50.1509 29.9148C50.1509 29.7039 50.2172 29.5435 50.3525 29.4336C50.4594 29.3435 50.592 29.2963 50.7435 29.2963C50.937 29.2963 51.1142 29.3798 51.1968 29.4863H51.2049V29.3226H51.489V30.3784C51.489 30.4883 51.5472 30.5454 51.6622 30.5454H52.0776V30.7597L52.0762 30.7608ZM51.2076 30.1862L51.2035 29.6918C51.1047 29.5544 50.9776 29.4841 50.8166 29.4841C50.7137 29.4841 50.6271 29.5204 50.5608 29.594C50.4824 29.6709 50.4458 29.7841 50.4458 29.928C50.4458 30.0049 50.458 30.0587 50.4783 30.095C50.5108 30.1554 50.5771 30.1851 50.6758 30.1851H51.2062L51.2076 30.1862ZM50.7584 29.026H50.454V28.7656H50.7584V29.026ZM51.2603 29.026H50.9559V28.7656H51.2603V29.026Z" fill="#226AB2"/>
<path d="M53.7606 30.7529H53.3939C53.2708 30.7529 53.168 30.709 53.0814 30.6255C53.0313 30.5783 52.9988 30.5321 52.9786 30.4816C52.9001 30.6453 52.6904 30.7419 52.4644 30.7518H51.9246V30.5376H52.3819C52.4604 30.5376 52.5294 30.5211 52.5957 30.4871C52.6823 30.4398 52.7228 30.3805 52.7228 30.3036C52.731 30.3574 52.731 30.0992 52.7188 29.5312H53.0029C53.0029 29.7455 53.007 29.9553 53.011 30.1663C53.0151 30.2827 53.0557 30.3772 53.1382 30.4475C53.2086 30.5079 53.287 30.5376 53.3642 30.5376H53.7592V30.7518L53.7606 30.7529ZM52.7973 31.2473H52.4888V30.9902H52.7973V31.2473ZM53.2992 31.2473H52.9948V30.9902H53.2992V31.2473Z" fill="#226AB2"/>
<path d="M55.4237 30.7603H55.057C54.9339 30.7603 54.8311 30.7163 54.7445 30.6328C54.6944 30.5856 54.6619 30.5394 54.6416 30.4889C54.5632 30.6526 54.3534 30.7493 54.1275 30.7592H53.5876V30.5449H54.049C54.1275 30.5449 54.1979 30.5285 54.2628 30.4944C54.3453 30.4472 54.3859 30.3878 54.3859 30.3109C54.394 30.3648 54.394 30.1066 54.3819 29.5386H54.666C54.666 29.7528 54.6701 29.9627 54.6741 30.1736C54.6782 30.29 54.7188 30.3845 54.8013 30.4548C54.8717 30.5153 54.9501 30.5449 55.0273 30.5449H55.4223V30.7592L55.4237 30.7603ZM54.666 29.2727H54.3575V29.0156H54.666V29.2727Z" fill="#226AB2"/>
<path d="M57.4611 30.5391V30.7533H57.0336C56.832 30.7533 56.6263 30.7171 56.4125 30.639C56.2028 30.716 55.9972 30.7533 55.7915 30.7533H55.322V30.5391H55.8037C55.9728 30.5391 56.0919 30.5325 56.1541 30.5226C56.0012 30.4391 55.8862 30.3325 55.8078 30.1985C55.7415 30.0886 55.709 29.981 55.709 29.8744C55.709 29.6909 55.7793 29.547 55.9187 29.4393C56.0499 29.3427 56.215 29.2921 56.4085 29.2921C56.602 29.2921 56.7711 29.3427 56.9023 29.4393C57.0458 29.5459 57.1161 29.6898 57.1161 29.8744C57.1161 29.981 57.0836 30.0886 57.0173 30.1985C56.9389 30.3325 56.8239 30.4391 56.671 30.5226C56.7332 30.5325 56.8523 30.5391 57.0214 30.5391H57.4611ZM56.3043 29.0383H55.9999V28.7812H56.3043V29.0383ZM56.8185 29.8744C56.8185 29.7601 56.786 29.6668 56.7156 29.5899C56.6371 29.5064 56.5343 29.4624 56.4071 29.4624C56.28 29.4624 56.1812 29.5053 56.1027 29.5899C56.0324 29.6668 55.9999 29.7601 55.9999 29.8744C55.9999 30.0216 56.0581 30.1524 56.1771 30.2655C56.2718 30.3622 56.3503 30.4094 56.4112 30.4094C56.4775 30.4094 56.5546 30.3622 56.6507 30.2655C56.7616 30.1524 56.8198 30.0216 56.8198 29.8744H56.8185ZM56.8103 29.0383H56.5059V28.7812H56.8103V29.0383Z" fill="#226AB2"/>
<path d="M59.1483 30.7557H58.7816C58.6585 30.7557 58.5557 30.7118 58.4691 30.6283C58.419 30.5811 58.3865 30.5349 58.3662 30.4844C58.2878 30.6481 58.078 30.7448 57.8521 30.7546H57.3948V30.5404H57.5395C57.6627 30.5371 57.7411 30.5371 57.7736 30.5371C57.8521 30.5371 57.9211 30.5206 57.9874 30.4866C58.0699 30.4426 58.1105 30.3833 58.1105 30.3064C58.1186 30.3602 58.1186 30.1021 58.1065 29.5341H58.3906C58.3906 29.7483 58.3946 29.9581 58.3987 30.1691C58.4028 30.2855 58.4434 30.38 58.5259 30.4503C58.5962 30.5108 58.6747 30.5404 58.7519 30.5404H59.1469V30.7546L59.1483 30.7557ZM58.1443 29.2649H57.8399V29.0078H58.1443V29.2649ZM58.6504 29.2649H58.3419V29.0078H58.6504V29.2649Z" fill="#226AB2"/>
<path d="M59.8935 30.3219C59.8935 30.5889 59.6959 30.757 59.3333 30.757H59.0654V30.5427H59.3293C59.4903 30.5427 59.6093 30.4658 59.6093 30.3153C59.6093 30.1044 59.6053 29.8176 59.6012 29.4562C59.5972 29.0387 59.5931 28.7509 59.5931 28.5938H59.8772C59.8772 28.7476 59.8813 29.0354 59.8854 29.4595C59.8894 29.8209 59.8935 30.1077 59.8935 30.3219Z" fill="#226AB2"/>
<path d="M81.9796 0.373157C81.8639 0.378355 81.5097 0.328448 81.3988 0.294137C81.1714 0.223782 80.7794 0.115304 80.7649 0.0591589C80.9437 -0.0614495 82.0739 -0.00634477 82.3914 0.305227C82.1432 0.353401 82.2618 0.36068 81.9796 0.373157Z" fill="#226AB2"/>
<path d="M83.8757 8.56565C83.5073 8.57258 83.2064 8.25858 83.2005 7.86071C83.1943 7.45868 83.4792 7.13914 83.8504 7.1329C84.2202 7.12666 84.5224 7.44655 84.5279 7.84927C84.5331 8.23813 84.2413 8.55872 83.8757 8.56565Z" fill="#226AB2"/>
<path d="M82.7887 8.75368C82.7898 9.1259 82.5437 9.47767 82.2151 9.57402C81.8308 9.687 81.4662 9.45307 81.4004 9.05173C81.3411 8.6906 81.5327 8.30902 81.8561 8.14301C82.3174 7.90665 82.7877 8.21475 82.7887 8.75368Z" fill="#226AB2"/>
<path d="M86.3189 7.11681C86.3199 7.5074 86.1595 7.78743 85.9131 7.87442C85.6531 7.96627 85.3412 7.84774 85.1392 7.57082C84.9236 7.27519 84.8366 6.94525 84.9295 6.58343C85.0504 6.11105 85.5069 5.95543 85.8881 6.25418C86.1806 6.48361 86.304 6.799 86.3189 7.11681Z" fill="#226AB2"/>
<path d="M83.4518 6.11824C83.0335 6.11651 82.6322 5.8039 82.5223 5.39425C82.4059 4.96068 82.6821 4.57529 83.1236 4.55553C83.5398 4.53682 83.9713 4.83141 84.1107 5.22997C84.2756 5.70131 83.9647 6.12032 83.4518 6.11824Z" fill="#226AB2"/>
<path d="M87.885 9.67243C87.883 9.88904 87.8414 10.0793 87.7138 10.2415C87.5451 10.4564 87.3087 10.4806 87.099 10.306C86.7635 10.0259 86.67 9.36536 86.9143 8.99938C87.1018 8.71796 87.4109 8.69647 87.6345 8.95155C87.8178 9.16054 87.8819 9.41284 87.885 9.67243Z" fill="#226AB2"/>
<path d="M84.8508 10.3362C84.8512 10.1459 84.9066 9.97469 85.0217 9.82462C85.256 9.51859 85.666 9.51651 85.9037 9.82011C86.137 10.1182 86.1332 10.5829 85.8947 10.8761C85.6774 11.1433 85.3139 11.1607 85.0768 10.9111C84.925 10.7514 84.8526 10.5573 84.8508 10.3362Z" fill="#226AB2"/>
<path d="M85.1914 3.96095C85.5231 3.96338 85.8814 4.26282 85.9462 4.59207C85.9889 4.80695 85.8762 4.96395 85.6617 4.98717C85.5258 5.00172 85.4011 4.96533 85.2863 4.89359C85.0749 4.76189 84.9145 4.5886 84.875 4.32936C84.8406 4.1027 84.9671 3.95922 85.1914 3.96095Z" fill="#226AB2"/>
<path d="M88.0616 6.37781C88.0464 6.60585 88.0183 6.83009 87.7878 6.92644C87.5625 7.02036 87.3712 6.91049 87.2139 6.75176C86.9186 6.45405 86.7678 6.09327 86.8222 5.66698C86.8742 5.25975 87.1997 5.11142 87.5317 5.34605C87.8835 5.59489 88.0346 5.95914 88.0616 6.37781Z" fill="#226AB2"/>
<path d="M81.1409 7.29639C80.7708 7.29466 80.4634 6.99002 80.4668 6.62923C80.4703 6.28266 80.7618 6.00574 81.1212 6.00782C81.5024 6.01025 81.8174 6.31697 81.8174 6.68503C81.8174 7.02641 81.5163 7.29847 81.1409 7.29639Z" fill="#226AB2"/>
<path d="M80.2718 9.92139C79.9016 9.91966 79.5942 9.61502 79.5977 9.25424C79.6012 8.90766 79.8926 8.63074 80.252 8.63282C80.6333 8.63525 80.9483 8.94197 80.9483 9.31003C80.9486 9.65141 80.6475 9.92347 80.2718 9.92139Z" fill="#226AB2"/>
<path d="M84.3156 11.3222C84.2966 11.7038 84.1385 12.006 83.7999 12.1803C83.5705 12.2985 83.3248 12.3068 83.0988 12.1516C82.8562 11.9849 82.7553 11.7426 82.7702 11.4525C82.7862 11.1468 82.9279 10.9022 83.1678 10.7237C83.409 10.5445 83.6758 10.4925 83.9496 10.6426C84.2113 10.7864 84.2993 11.037 84.3156 11.3222Z" fill="#226AB2"/>
<path d="M85.9017 13.5326C85.8872 13.8206 85.7679 14.0487 85.5125 14.1804C85.3392 14.2698 85.1542 14.276 84.9833 14.1585C84.8003 14.0327 84.7241 13.8497 84.7355 13.6307C84.7476 13.4002 84.8544 13.2152 85.0356 13.0807C85.2176 12.9455 85.4193 12.906 85.6258 13.0197C85.823 13.1282 85.8896 13.3171 85.9017 13.5326Z" fill="#226AB2"/>
<path d="M85.4562 18.0121C85.4444 18.2509 85.3452 18.4401 85.1331 18.5493C84.9893 18.6235 84.8358 18.6287 84.694 18.5313C84.5422 18.4269 84.4788 18.2751 84.4885 18.0935C84.4986 17.9022 84.5873 17.749 84.7374 17.6371C84.8881 17.5248 85.0555 17.4922 85.2267 17.5865C85.391 17.6766 85.4461 17.8333 85.4562 18.0121Z" fill="#226AB2"/>
<path d="M84.2342 16.8637C84.2224 17.1025 84.1233 17.2917 83.9112 17.4009C83.7674 17.475 83.6139 17.4802 83.4721 17.3828C83.3203 17.2785 83.2569 17.1267 83.2666 16.9451C83.2766 16.7538 83.3654 16.6006 83.5154 16.4887C83.6662 16.3764 83.8336 16.3438 84.0048 16.4381C84.1691 16.5282 84.2242 16.6852 84.2342 16.8637Z" fill="#226AB2"/>
<path d="M83.3719 15.6293C83.3601 15.8681 83.261 16.0573 83.0489 16.1665C82.9051 16.2406 82.7516 16.2458 82.6098 16.1485C82.458 16.0441 82.3946 15.8923 82.4043 15.7107C82.4143 15.5194 82.5031 15.3662 82.6531 15.2543C82.8039 15.142 82.9713 15.1094 83.1425 15.2037C83.3071 15.2938 83.3619 15.4508 83.3719 15.6293Z" fill="#226AB2"/>
<path d="M83.135 3.43335C82.7277 3.39176 82.3652 3.21363 82.1268 2.83031C81.8977 2.46225 82.0686 2.13924 82.4942 2.133C82.9083 2.12676 83.266 2.27544 83.5484 2.58771C83.695 2.74991 83.8143 2.93636 83.711 3.16268C83.6063 3.39246 83.3849 3.42192 83.135 3.43335Z" fill="#226AB2"/>
<path d="M88.438 7.93717C88.4415 7.76319 88.4609 7.59337 88.5444 7.43845C88.6563 7.23016 88.8404 7.19203 89.0261 7.33656C89.1332 7.41973 89.2088 7.52925 89.2628 7.65194C89.4334 8.03803 89.5016 8.43589 89.3561 8.84555C89.2524 9.13736 89.0126 9.19524 88.7977 8.97551C88.5191 8.68993 88.4522 8.32083 88.438 7.93717Z" fill="#226AB2"/>
<path d="M86.6099 12.6951C86.6102 12.3926 86.6858 12.1143 86.8764 11.8758C87.1751 11.5026 87.6184 11.566 87.7657 12.02C87.9213 12.4997 87.8447 12.9554 87.5113 13.3418C87.2607 13.6326 86.9346 13.5876 86.745 13.2531C86.6469 13.0802 86.6102 12.8923 86.6099 12.6951Z" fill="#226AB2"/>
<path d="M79.6783 7.47245C79.671 7.87933 79.3248 8.21689 78.9252 8.20684C78.5506 8.19748 78.2657 7.88002 78.2754 7.48284C78.2851 7.08705 78.6213 6.75746 79.0063 6.76578C79.3882 6.7741 79.6853 7.08671 79.6783 7.47245Z" fill="#226AB2"/>
<path d="M89.4727 10.8848C89.4707 11.0612 89.4419 11.2525 89.3546 11.4289C89.3022 11.5346 89.235 11.6368 89.1012 11.6347C88.9737 11.633 88.903 11.536 88.8583 11.4327C88.685 11.0327 88.6853 10.63 88.8711 10.2339C88.9151 10.14 88.9851 10.0561 89.1019 10.0547C89.2187 10.0533 89.2856 10.1358 89.3365 10.2287C89.444 10.4262 89.4734 10.6425 89.4727 10.8848Z" fill="#226AB2"/>
<path d="M80.9309 4.40348C80.5618 4.39862 80.2939 4.2593 80.0891 4.0056C79.9262 3.8039 79.8683 3.56961 79.9699 3.31973C80.0707 3.07089 80.2703 2.943 80.5275 2.91424C80.8713 2.87577 81.178 2.97662 81.4355 3.20883C81.6417 3.39459 81.7662 3.62229 81.6847 3.91376C81.6008 4.21459 81.3673 4.33347 81.0903 4.38857C81.0252 4.40174 80.9576 4.4014 80.9309 4.40348Z" fill="#226AB2"/>
<path d="M86.5779 3.418C86.5786 3.17817 86.7266 3.05617 86.9588 3.104C87.3653 3.18787 87.8398 3.79889 87.8273 4.22206C87.8204 4.45149 87.6682 4.57071 87.4461 4.52046C87.0368 4.42861 86.5765 3.84394 86.5779 3.418Z" fill="#226AB2"/>
<path d="M84.7652 1.55494C85.3087 1.56915 86.0964 2.18987 86.251 2.72533C86.3463 3.05596 86.181 3.26183 85.8417 3.23584C85.3031 3.19425 84.5639 2.61131 84.3954 2.09526C84.2845 1.75734 84.4291 1.54628 84.7652 1.55494Z" fill="#226AB2"/>
<path d="M85.6318 1.0321C85.6907 1.04874 85.7916 1.06503 85.8827 1.10523C86.5492 1.39774 87.1335 1.80913 87.6021 2.37612C87.7002 2.495 87.8655 2.64299 87.7581 2.79964C87.6406 2.9712 87.4441 2.85093 87.2978 2.79167C86.6279 2.51995 86.0595 2.09782 85.5833 1.54885C85.5178 1.4733 85.4616 1.38561 85.4183 1.29481C85.3317 1.11216 85.3951 1.02136 85.6318 1.0321Z" fill="#226AB2"/>
<path d="M82.6431 0.704632C83.1699 0.739636 83.6554 0.895941 84.0727 1.23108C84.212 1.34302 84.3815 1.47334 84.3125 1.68371C84.2429 1.89581 84.0325 1.89512 83.8526 1.89512C83.3134 1.89477 82.8295 1.71455 82.3901 1.40298C82.3572 1.37976 82.326 1.35342 82.2982 1.32396C82.188 1.20682 82.0459 1.08968 82.1139 0.906685C82.1811 0.726465 82.3624 0.723 82.5225 0.705324C82.5627 0.700819 82.6032 0.704632 82.6431 0.704632Z" fill="#226AB2"/>
<path d="M89.4109 4.99486C89.4137 5.13765 89.3669 5.17126 89.2577 5.11858C89.1936 5.08774 89.1316 5.0465 89.0782 4.99867C88.6294 4.59491 88.279 4.11698 88.044 3.55553C88.0056 3.46334 87.9359 3.3403 88.0319 3.26752C88.1296 3.19336 88.227 3.29941 88.3001 3.36318C88.7725 3.77318 89.1333 4.26809 89.3718 4.85241C89.3932 4.90475 89.4023 4.96228 89.4109 4.99486Z" fill="#226AB2"/>
<path d="M79.6784 4.98726C79.676 5.35116 79.3786 5.65095 79.0227 5.64818C78.6404 5.6454 78.3247 5.30333 78.3282 4.8968C78.3316 4.49304 78.587 4.1981 78.9357 4.19533C79.319 4.19221 79.6812 4.5783 79.6784 4.98726Z" fill="#226AB2"/>
<path d="M89.1245 5.63224C89.1259 5.61353 89.1242 5.55808 89.1356 5.5054C89.1585 5.40073 89.2216 5.36191 89.3068 5.43885C89.381 5.50574 89.4527 5.58164 89.5047 5.66656C89.9036 6.32158 90.1639 7.03068 90.279 7.79211C90.298 7.91895 90.349 8.10818 90.2114 8.1619C90.0714 8.21631 89.9948 8.03713 89.9213 7.93074C89.5498 7.3925 89.1339 6.20028 89.1245 5.63224Z" fill="#226AB2"/>
<path d="M76.6038 5.852C76.6041 5.47735 76.8536 5.19766 77.1832 5.20321C77.5412 5.2091 77.8636 5.55013 77.8674 5.92686C77.8708 6.27586 77.6029 6.5552 77.2629 6.55693C76.8987 6.55866 76.6038 6.24328 76.6038 5.852Z" fill="#226AB2"/>
<path d="M76.5637 8.04094C76.5641 7.74219 76.763 7.519 77.0261 7.5235C77.3116 7.52836 77.5688 7.80042 77.5719 8.10055C77.5747 8.37885 77.3608 8.6017 77.0898 8.60309C76.799 8.60448 76.5637 8.35321 76.5637 8.04094Z" fill="#226AB2"/>
<path d="M78.0664 9.705C78.0668 9.40626 78.2657 9.18306 78.5287 9.18757C78.8143 9.19242 79.0715 9.46448 79.0746 9.76461C79.0774 10.0429 78.8635 10.2658 78.5925 10.2671C78.3017 10.2685 78.0664 10.0169 78.0664 9.705Z" fill="#226AB2"/>
<path d="M76.1956 9.57219C76.1959 9.27344 76.3948 9.05025 76.6579 9.05475C76.9435 9.05961 77.2006 9.33167 77.2037 9.6318C77.2065 9.9101 76.9927 10.133 76.7217 10.1343C76.4305 10.1357 76.1952 9.88411 76.1956 9.57219Z" fill="#226AB2"/>
<path d="M74.0569 9.57219C74.0572 9.27344 74.2562 9.05025 74.5192 9.05475C74.8048 9.05961 75.062 9.33167 75.0651 9.6318C75.0678 9.9101 74.854 10.133 74.583 10.1343C74.2922 10.1357 74.0569 9.88411 74.0569 9.57219Z" fill="#226AB2"/>
<path d="M88.2864 13.8112C88.2954 13.4106 88.3637 13.0803 88.5234 12.7732C88.5609 12.7015 88.6038 12.6308 88.6558 12.5698C88.739 12.4717 88.8315 12.3646 88.9768 12.4086C89.1164 12.4506 89.1643 12.5826 89.1799 12.7129C89.245 13.2647 89.1088 13.7655 88.7813 14.2094C88.7182 14.295 88.6378 14.3872 88.5155 14.3623C88.3831 14.3352 88.3477 14.215 88.3252 14.0999C88.3034 13.9866 88.2943 13.8712 88.2864 13.8112Z" fill="#226AB2"/>
<path d="M80.6684 1.22776C80.9578 1.24405 81.2773 1.32931 81.5442 1.55666C81.6637 1.65856 81.7698 1.78194 81.7192 1.95939C81.6693 2.13337 81.5206 2.19228 81.365 2.21689C80.9588 2.28101 80.5942 2.17288 80.2864 1.89839C80.1565 1.78263 80.0223 1.64262 80.0958 1.44299C80.1658 1.25272 80.3499 1.24683 80.5166 1.22846C80.5495 1.22464 80.5831 1.22776 80.6684 1.22776Z" fill="#226AB2"/>
<path d="M87.3488 14.891C87.3141 15.2438 87.2164 15.5845 86.919 15.8285C86.6931 16.0136 86.4837 15.9488 86.3864 15.6736C86.256 15.3052 86.4151 14.7285 86.7215 14.4848C86.8376 14.3926 86.9665 14.3008 87.1246 14.3843C87.32 14.488 87.3374 14.681 87.3488 14.891Z" fill="#226AB2"/>
<path d="M90.492 10.3469C90.5037 10.6804 90.4996 11.0138 90.3838 11.3319C90.3523 11.4189 90.3225 11.5381 90.2161 11.5371C90.1066 11.536 90.0806 11.413 90.0594 11.325C89.8997 10.662 89.882 9.99586 90.0338 9.32836C90.0383 9.3086 90.0452 9.28885 90.0539 9.27083C90.0906 9.19423 90.1003 9.07883 90.2053 9.07813C90.3201 9.07709 90.3447 9.19458 90.3741 9.28053C90.4431 9.48016 90.4781 9.68845 90.4899 9.89917C90.4985 10.0479 90.492 10.1976 90.492 10.3469Z" fill="#226AB2"/>
<path d="M84.5729 0.626715C84.7503 0.760146 84.9711 0.820104 85.1395 0.967745C85.2036 1.02424 85.3031 1.07934 85.266 1.17812C85.2282 1.27793 85.116 1.25506 85.0328 1.24639C84.4835 1.18851 83.9861 0.962547 83.4881 0.741431C83.3228 0.667957 83.1644 0.576808 83.0077 0.484965C82.9363 0.44303 82.8514 0.40352 82.8296 0.292269C82.9405 0.204239 83.0673 0.226419 83.1918 0.237163C83.6042 0.272167 83.9809 0.447188 84.376 0.550814C84.3854 0.548388 84.3944 0.546309 84.4037 0.543883C84.4647 0.537298 84.5129 0.567103 84.5594 0.601414C84.5639 0.609385 84.5684 0.61805 84.5729 0.626715Z" fill="#226AB2"/>
<path d="M75.8766 6.47869C75.8676 6.64782 75.8443 6.79442 75.7705 6.92889C75.5962 7.24705 75.2319 7.26091 75.0403 6.95592C74.8764 6.6953 74.8916 6.29674 75.0753 6.04928C75.2981 5.7488 75.6305 5.78207 75.7941 6.12102C75.8513 6.23955 75.8669 6.36744 75.8766 6.47869Z" fill="#226AB2"/>
<path d="M75.7845 8.25994C75.7755 8.42907 75.7523 8.57567 75.6785 8.71014C75.5042 9.0283 75.1399 9.04216 74.9483 8.73717C74.7843 8.47655 74.7996 8.07799 74.9833 7.83053C75.2061 7.53005 75.5385 7.56332 75.7021 7.90227C75.7592 8.0208 75.7748 8.14869 75.7845 8.25994Z" fill="#226AB2"/>
<path d="M85.4782 16.0465C85.4799 16.4226 85.2109 16.7584 84.9014 16.7664C84.6505 16.7729 84.4689 16.5605 84.4675 16.2593C84.4661 15.8895 84.7434 15.5592 85.0591 15.5547C85.3135 15.5513 85.4768 15.7426 85.4782 16.0465Z" fill="#226AB2"/>
<path d="M84.5529 14.4215C84.5546 14.7976 84.2856 15.1334 83.9762 15.1414C83.7252 15.1479 83.5436 14.9355 83.5422 14.6343C83.5409 14.2645 83.8181 13.9342 84.1338 13.9297C84.3886 13.9263 84.5515 14.1176 84.5529 14.4215Z" fill="#226AB2"/>
<path d="M83.295 13.484C83.2968 13.8601 83.0278 14.1959 82.7183 14.2039C82.4674 14.2104 82.2858 13.998 82.2844 13.6968C82.283 13.327 82.5603 12.9967 82.876 12.9922C83.1304 12.9888 83.2933 13.1801 83.295 13.484Z" fill="#226AB2"/>
<path d="M79.0725 2.05513C79.3269 2.07385 79.5608 2.18336 79.7057 2.44364C79.8669 2.73303 79.7175 3.03351 79.3941 3.07649C79.0826 3.11808 78.6823 2.85745 78.5904 2.55385C78.5038 2.26793 78.7072 2.04335 79.0725 2.05513Z" fill="#226AB2"/>
<path d="M76.6988 4.18643C76.6932 4.22559 76.6891 4.29422 76.6728 4.35972C76.6114 4.60683 76.4177 4.77596 76.2094 4.76972C75.9904 4.76313 75.8337 4.59782 75.7855 4.3261C75.7505 4.1289 75.7876 3.94452 75.8916 3.77817C76.0874 3.46486 76.4108 3.47179 76.6003 3.78718C76.6686 3.90155 76.6943 4.02666 76.6988 4.18643Z" fill="#226AB2"/>
<path d="M74.2752 6.63594C74.2652 6.93156 74.1983 7.17624 74.0271 7.3835C73.9453 7.48262 73.8437 7.54951 73.7124 7.52386C73.5672 7.49544 73.5048 7.37587 73.4788 7.24625C73.4091 6.90245 73.4767 6.58429 73.6885 6.30391C73.7689 6.19717 73.8711 6.11711 74.0143 6.14691C74.1695 6.17915 74.2191 6.3105 74.2534 6.44428C74.2718 6.51533 74.2707 6.59192 74.2752 6.63594Z" fill="#226AB2"/>
<path d="M73.799 8.66718C73.79 8.92572 73.7317 9.13921 73.5824 9.32047C73.511 9.40712 73.4222 9.46534 73.3072 9.44316C73.1803 9.41821 73.1259 9.31389 73.103 9.20056C73.0424 8.90008 73.1013 8.62212 73.2864 8.37709C73.3567 8.28387 73.4462 8.21386 73.5713 8.23985C73.7068 8.26792 73.7504 8.38264 73.7803 8.49978C73.7958 8.56182 73.7948 8.62836 73.799 8.66718Z" fill="#226AB2"/>
<path d="M78.1859 3.52411C78.1831 3.79929 77.9922 4.01521 77.7503 4.0166C77.4654 4.01798 77.2131 3.72374 77.2117 3.3886C77.2103 3.10718 77.3836 2.90963 77.6276 2.91414C77.9274 2.91968 78.189 3.20561 78.1859 3.52411Z" fill="#226AB2"/>
<path d="M80.6199 0.429688C80.9817 0.451868 81.3782 0.505241 81.7484 0.680955C81.8447 0.726703 81.9639 0.777996 81.9487 0.905882C81.9327 1.03897 81.8031 1.0511 81.6971 1.06149C81.1374 1.11625 80.6272 0.955443 80.1458 0.680608C80.1001 0.654615 80.0519 0.617878 80.0612 0.553761C80.0709 0.487219 80.1316 0.477862 80.1815 0.463305C80.3111 0.425182 80.4456 0.430727 80.6199 0.429688Z" fill="#226AB2"/>
<path d="M75.249 4.45013C75.2382 4.68649 75.1634 4.90795 74.9631 5.06426C74.7593 5.22334 74.5395 5.15575 74.4439 4.91419C74.3361 4.64213 74.4522 4.22138 74.6848 4.04394C74.7953 3.95972 74.9177 3.92991 75.0421 4.00027C75.2088 4.09419 75.2434 4.2602 75.249 4.45013Z" fill="#226AB2"/>
<path d="M89.5389 14.1512C89.3441 13.7897 89.6969 12.3892 90.0296 12.2031C90.2722 12.5081 89.9173 13.9159 89.5389 14.1512Z" fill="#226AB2"/>
<path d="M72.906 6.63583C72.8863 6.89957 72.8353 7.14425 72.6721 7.34735C72.6093 7.42533 72.5348 7.50331 72.4173 7.47316C72.2957 7.44196 72.2472 7.34319 72.2326 7.23125C72.1893 6.89992 72.2697 6.59771 72.4648 6.3298C72.5241 6.2487 72.5958 6.16379 72.7137 6.1936C72.8364 6.22479 72.8696 6.33327 72.8901 6.44209C72.9022 6.50829 72.9015 6.57691 72.906 6.63583Z" fill="#226AB2"/>
<path d="M72.3931 8.58114C72.3733 8.84489 72.3224 9.08957 72.1591 9.29266C72.0964 9.37064 72.0219 9.44862 71.9044 9.41847C71.7828 9.38728 71.7342 9.2885 71.7197 9.17656C71.6764 8.84523 71.7568 8.54302 71.9519 8.27511C72.0111 8.19402 72.0829 8.10911 72.2007 8.13891C72.3234 8.1701 72.3567 8.27858 72.3771 8.38741C72.3893 8.45395 72.3886 8.52257 72.3931 8.58114Z" fill="#226AB2"/>
<path d="M73.877 4.4635C73.8565 4.72967 73.7668 4.99549 73.572 5.21661C73.5041 5.2939 73.4185 5.35975 73.3076 5.32058C73.1876 5.27865 73.1578 5.16601 73.1592 5.05545C73.163 4.76052 73.2618 4.49642 73.4445 4.26734C73.5165 4.17688 73.6015 4.08261 73.7314 4.12975C73.8697 4.18035 73.8753 4.31101 73.877 4.4635Z" fill="#226AB2"/>
<path d="M88.36 15.3128C88.3007 15.6684 88.1569 16.0337 87.8578 16.3224C87.82 16.3588 87.7753 16.4014 87.7161 16.3706C87.661 16.3418 87.653 16.2812 87.6565 16.2285C87.6849 15.8182 87.801 15.4418 88.0886 15.1378C88.1382 15.0855 88.1982 15.0307 88.2827 15.0657C88.3371 15.0879 88.359 15.1482 88.36 15.3128Z" fill="#226AB2"/>
<path d="M71.8444 6.27854C71.8118 6.59392 71.7155 6.90064 71.4957 7.15572C71.4351 7.22607 71.363 7.30856 71.2566 7.26073C71.1495 7.21256 71.1606 7.10616 71.1769 7.01155C71.2309 6.69997 71.3453 6.41127 71.521 6.14996C71.5723 6.07406 71.634 5.97702 71.7442 6.01722C71.8517 6.05604 71.8413 6.16694 71.8444 6.27854Z" fill="#226AB2"/>
<path d="M72.1916 4.94038C72.2731 4.60593 72.4367 4.29263 72.7323 4.0677C72.8588 3.97135 72.9884 4.04032 72.9697 4.19697C72.925 4.57474 72.7593 4.89325 72.4571 5.12857C72.4006 5.17259 72.3327 5.18298 72.2689 5.14382C72.2052 5.10466 72.1892 5.03881 72.1916 4.94038Z" fill="#226AB2"/>
<path d="M79.1688 0.632815C79.3043 0.65361 79.5306 0.618259 79.5583 0.826551C79.5874 1.0442 79.3625 1.09099 79.1993 1.13916C79.0104 1.19461 78.8156 1.18976 78.6257 1.1253C78.5342 1.09411 78.4379 1.05529 78.4257 0.948545C78.4126 0.833829 78.5138 0.789814 78.5976 0.749611C78.7699 0.667126 78.9532 0.632468 79.1688 0.632815Z" fill="#226AB2"/>
<path d="M79.347 0.09375C79.4825 0.0999884 79.7088 0.0892443 79.7366 0.151974C79.7657 0.217477 79.5407 0.231341 79.3775 0.245897C79.1886 0.262533 78.9938 0.261146 78.8039 0.241737C78.7124 0.23238 78.6161 0.220596 78.6039 0.188711C78.5908 0.1544 78.692 0.141231 78.7758 0.1291C78.9481 0.104147 79.1314 0.09375 79.347 0.09375Z" fill="#226AB2"/>
<path d="M76.1499 2.21526C76.1531 1.93696 76.3458 1.69019 76.5554 1.69539C76.719 1.69955 76.8493 1.86591 76.8476 2.06831C76.8455 2.32581 76.6289 2.58401 76.422 2.57604C76.2567 2.56981 76.1475 2.42494 76.1499 2.21526Z" fill="#226AB2"/>
<path d="M74.9309 2.90725C74.9323 2.70485 75.1936 2.3205 75.3832 2.24217C75.5409 2.17701 75.6657 2.25118 75.6861 2.42274C75.7173 2.68579 75.4231 3.0743 75.1617 3.11554C75.0224 3.13738 74.9299 3.05385 74.9309 2.90725Z" fill="#226AB2"/>
<path d="M77.5826 1.72756C77.3556 1.72964 77.1591 1.55497 77.1629 1.35395C77.1664 1.17824 77.3171 1.04827 77.5192 1.04689C77.7632 1.04516 77.9853 1.21013 77.9909 1.39658C77.9961 1.57646 77.812 1.72548 77.5826 1.72756Z" fill="#226AB2"/>
<path d="M86.5884 17.0465C86.5628 17.2836 86.4564 17.5192 86.2516 17.7046C86.1965 17.7546 86.1337 17.8045 86.053 17.766C85.9771 17.7296 85.9552 17.653 85.9528 17.5775C85.9431 17.2818 86.0395 17.0288 86.2672 16.8372C86.3288 16.7855 86.4034 16.7408 86.4893 16.7814C86.5843 16.8268 86.5898 16.9169 86.5884 17.0465Z" fill="#226AB2"/>
<path d="M70.7257 8.86204C70.7305 8.65756 70.7485 8.45482 70.8373 8.26662C70.8695 8.19835 70.9104 8.12696 70.997 8.13319C71.082 8.13943 71.1152 8.21256 71.1395 8.28603C71.2296 8.55809 71.2012 8.82288 71.083 9.07865C71.0404 9.17084 70.986 9.27689 70.8643 9.25125C70.744 9.2256 70.7402 9.10499 70.7271 9.00448C70.7208 8.9577 70.7257 8.90952 70.7257 8.86204Z" fill="#226AB2"/>
<path d="M74.5008 2.53723C74.4987 2.77359 74.148 3.15205 73.9151 3.16696C73.7754 3.17597 73.7019 3.10284 73.7435 2.96837C73.8295 2.68972 74.0083 2.48178 74.2752 2.36775C74.401 2.31403 74.5022 2.39998 74.5008 2.53723Z" fill="#226AB2"/>
<path d="M88.4458 16.3657C88.4864 15.9588 88.8853 15.1773 89.1299 15.0078C89.2055 15.2844 88.775 16.1526 88.4458 16.3657Z" fill="#226AB2"/>
<path d="M77.2944 0.818158C77.2015 0.801869 77.0948 0.819198 77.0702 0.708294C77.0484 0.609173 77.1398 0.570357 77.2064 0.530847C77.3745 0.431727 77.5533 0.358946 77.7488 0.339191C77.8299 0.33122 77.9165 0.330526 77.9505 0.426875C77.981 0.513172 77.9203 0.567584 77.8611 0.611599C77.6895 0.738792 77.4923 0.793898 77.2944 0.818158Z" fill="#226AB2"/>
<path d="M87.314 17.1172C87.3615 17.4464 86.9519 18.0755 86.5977 18.2269C86.7543 17.7864 86.9311 17.4097 87.314 17.1172Z" fill="#226AB2"/>
<path d="M75.462 1.80418C75.3573 1.78997 75.3019 1.7262 75.3445 1.59797C75.3917 1.45483 75.6745 1.24203 75.8252 1.23476C75.9354 1.22956 75.9898 1.27738 75.9673 1.39418C75.9361 1.55534 75.6405 1.80487 75.462 1.80418Z" fill="#226AB2"/>
<path d="M90.609 10.9375C90.5754 11.639 90.4814 12.3328 90.2832 13.01C90.3466 12.3131 90.4499 11.622 90.609 10.9375Z" fill="#226AB2"/>
<path d="M84.3768 0.546669C84.1966 0.417049 83.9758 0.374421 83.7925 0.25C84.3661 0.423981 84.9237 0.638165 85.4443 0.94939C85.1538 0.840565 84.8637 0.731394 84.5733 0.622569L84.5785 0.627767C84.5134 0.588951 84.4357 0.58098 84.3706 0.54251L84.3768 0.546669Z" fill="#226AB2"/>
<path d="M89.2122 15.5904C89.4028 15.1853 89.5931 14.7801 89.7837 14.375C89.6832 14.8242 89.4739 15.2213 89.2573 15.6154C89.2122 15.6563 89.1994 15.63 89.2122 15.5904Z" fill="#226AB2"/>
<path d="M85.7492 18.6406C85.7634 18.8364 85.6619 19.0045 85.4647 19.1106C85.4189 18.8926 85.5454 18.6836 85.7492 18.6406Z" fill="#226AB2"/>
<path d="M87.0757 18.1827C87.2414 17.8805 87.4833 17.6414 87.7203 17.3984C87.5505 17.6972 87.3536 17.9734 87.0715 18.1789L87.0757 18.1827Z" fill="#226AB2"/>
<path d="M87.9692 17.2734C88.0874 17.045 88.2596 16.8637 88.4284 16.6797C88.3074 16.9057 88.1671 17.1146 87.9661 17.2703L87.9692 17.2734Z" fill="#226AB2"/>
<path d="M86.0228 18.9531C85.923 19.16 85.7255 19.2692 85.5615 19.4116C85.7102 19.2536 85.828 19.064 86.0266 18.9573L86.0228 18.9531Z" fill="#226AB2"/>
<path d="M84.3699 0.546875C84.4499 0.548261 84.521 0.572868 84.5778 0.632132C84.4981 0.630399 84.4278 0.6051 84.3699 0.546875Z" fill="#226AB2"/>
<path d="M65.0317 13.2378C64.8962 13.3816 64.7607 13.5254 64.6252 13.6696C64.6155 13.6564 64.6058 13.6429 64.5957 13.6297C64.8387 13.3327 65.0851 13.0399 65.3225 12.7352C65.3776 12.6645 65.5394 12.634 65.4282 12.4479C65.423 12.4392 65.4753 12.3724 65.5023 12.3346C66.0881 11.5094 66.8218 11.0609 67.6833 10.9958C68.3231 10.9476 68.9518 11.0405 69.5112 11.5063C69.776 11.7267 70.0602 11.9142 70.3073 12.163C70.5533 12.4112 70.8084 12.6538 70.9852 13.0066C71.1075 13.2509 71.2784 13.4544 71.418 13.6852C72.0554 14.7391 72.5683 15.8922 73.0113 17.0934C73.6763 18.8966 74.3144 20.7158 74.9725 22.5232C75.5524 24.115 76.1779 25.6757 76.9692 27.1167C77.4686 28.0265 78.0314 28.8628 78.71 29.5636C79.8797 30.7707 81.2144 31.3249 82.7109 31.1828C83.1715 31.1391 83.6269 31.0074 84.0844 30.9114C84.179 30.8916 84.2712 30.8521 84.3644 30.8216C84.3786 30.8445 84.3928 30.8674 84.407 30.8902C84.3779 30.9024 84.3471 30.91 84.32 30.9277C83.6276 31.38 82.9119 31.7387 82.1394 31.904C80.917 32.1653 79.775 31.8808 78.6986 31.1159C77.7808 30.4636 77.026 29.5618 76.3432 28.5536C75.3818 27.1344 74.593 25.5613 73.8902 23.9196C73.31 22.5648 72.769 21.183 72.2103 19.813C72.1847 19.7499 72.1594 19.6865 72.1362 19.6286C72.1147 19.6335 72.1067 19.6335 72.0998 19.6373C72.0932 19.6407 72.0842 19.6463 72.0824 19.6536C72.0776 19.673 72.0731 19.6941 72.0731 19.7142C72.0696 23.007 72.0661 26.2998 72.0627 29.5923C72.0627 29.602 72.0575 29.6121 72.0547 29.6218C71.8762 29.6959 68.9213 29.6814 68.5997 29.5975C68.5997 29.4831 68.5997 29.3608 68.5997 29.2385C68.5997 24.2828 68.5997 19.3271 68.5997 14.3714C68.5997 14.2459 68.6011 14.1205 68.599 13.995C68.5955 13.7801 68.5685 13.5809 68.3855 13.4894C68.3567 13.4748 68.3325 13.4464 68.3061 13.4246C68.3155 13.4062 68.3249 13.3882 68.3342 13.3698C68.4094 13.4093 68.4846 13.4485 68.5623 13.489C68.6295 13.2378 68.4094 13.1061 68.4247 12.8822C68.2999 12.7564 68.0136 12.9823 68.0084 12.5713C68.1426 12.5865 68.2691 12.6011 68.3956 12.6153L68.3883 12.6066C68.4763 12.6666 68.5647 12.7269 68.6458 12.782C68.7071 12.6933 68.7466 12.6354 68.7889 12.5741C68.7744 12.5515 68.7629 12.5155 68.7439 12.5072C68.4174 12.3592 68.1006 12.155 67.7489 12.1349C67.3856 12.1145 67.0231 12.1249 66.663 12.2389C66.1556 12.3994 65.7259 12.7449 65.2999 13.1071C65.2618 13.1397 65.2157 13.157 65.1731 13.1813L65.1776 13.1871C65.2112 13.1386 65.249 13.0932 65.2774 13.0399C65.2958 13.0055 65.2999 12.9591 65.3107 12.9182C65.4361 12.9355 65.4965 12.8208 65.5443 12.687C65.4687 12.7668 65.3932 12.8465 65.3176 12.9265C65.2109 12.9886 65.1118 13.061 65.075 13.219C65.0612 13.2315 65.0469 13.2374 65.0317 13.2378ZM70.6268 13.2246C70.6563 13.0218 70.6244 12.9089 70.5256 12.818C70.4466 12.7456 70.3821 12.6482 70.3069 12.5685C69.8598 12.0951 69.3968 11.6688 68.8239 11.457C68.4174 11.3066 68.0098 11.2546 67.595 11.2754C67.4307 11.2838 67.2501 11.2779 67.1021 11.4259C68.528 11.185 69.6498 11.9235 70.6268 13.2246ZM69.0392 12.8409C69.0464 12.8135 69.0534 12.7865 69.0606 12.7591C68.9972 12.7335 68.9338 12.7075 68.8704 12.6818C68.8638 12.7071 68.8572 12.7328 68.8506 12.7581C68.913 12.7858 68.9761 12.8132 69.0392 12.8409Z" fill="#226AB2"/>
<path d="M77.8498 10.5336C79.0205 10.517 80.1576 10.5007 81.2875 10.4844C81.3405 10.7453 81.3578 26.1527 81.3117 26.6008C81.2012 26.6157 81.1374 26.5055 81.065 26.4348C80.5219 25.9039 80.0793 25.2499 79.6832 24.5425C78.9817 23.2904 78.4313 21.9266 77.908 20.5444C77.8577 20.4117 77.8522 20.2415 77.8519 20.0887C77.8487 17.5171 77.8498 14.9451 77.8498 12.3736C77.8498 11.8821 77.8498 11.391 77.8498 10.8996C77.8498 10.7963 77.8498 10.6934 77.8498 10.5336Z" fill="#226AB2"/>
<path d="M69.3467 9.86608C69.511 9.82657 69.6738 9.77182 69.8395 9.74998C70.551 9.65675 71.2154 9.84044 71.8268 10.3267C72.4322 10.8084 72.9098 11.4603 73.3347 12.1816C73.9658 13.2532 74.4739 14.4215 74.9241 15.6286C75.5528 17.3143 76.1552 19.0164 76.7724 20.7094C77.4008 22.4326 78.0579 24.1363 78.8969 25.7115C79.4837 26.8129 80.146 27.8274 80.9965 28.6162C81.9177 29.4705 82.9418 29.9044 84.0841 29.8503C84.1136 29.8489 84.143 29.8552 84.1767 29.9134C84.0044 29.9408 83.8325 29.9748 83.6596 29.9945C81.8175 30.2045 80.2496 29.4386 78.924 27.8052C78.1535 26.8559 77.5383 25.7552 76.9949 24.5834C76.2564 22.9913 75.6661 21.3059 75.0926 19.6094C74.5131 17.8949 73.936 16.1786 73.3361 14.4755C73.0207 13.5803 72.6385 12.7274 72.182 11.9338C71.8562 11.3671 71.4937 10.8476 71.0303 10.4573C70.5517 10.0543 70.0312 9.85742 69.4555 9.93436C69.4312 9.93748 69.4066 9.93679 69.3824 9.9354C69.3751 9.93505 69.3678 9.92708 69.3609 9.92258C69.3564 9.90386 69.3515 9.8848 69.3467 9.86608Z" fill="#226AB2"/>
<path d="M67.3494 13.0085C67.2524 13.0474 67.1532 13.0869 67.0531 13.1267C67.0333 12.8918 66.8798 13.0501 66.8049 12.9801C67.033 12.8235 67.3165 12.8495 67.5442 13.0079C67.6381 13.073 67.7601 13.0713 67.8689 13.1014C67.9265 13.1174 67.9833 13.1371 68.0748 13.1662C67.7296 13.3222 67.4745 13.2591 67.3494 13.0085Z" fill="#226AB2"/>
<path d="M67.85 12.5628C67.7294 12.5628 67.5984 12.6026 67.4906 12.5548C67.2328 12.4408 66.9936 12.5579 66.7472 12.595C66.6911 12.6033 66.6349 12.6078 66.5774 12.577C66.995 12.4089 67.4151 12.3215 67.85 12.5628Z" fill="#226AB2"/>
<path d="M66.1248 13.1251C66.306 12.7969 66.5808 12.8371 66.8363 12.7969C66.802 12.8222 66.7697 12.8572 66.7326 12.871C66.5642 12.9341 66.3847 12.956 66.2464 13.1216C66.226 13.1459 66.1729 13.1251 66.1248 13.1251Z" fill="#226AB2"/>
<path d="M65.2522 13.9483C65.318 13.7084 65.412 13.6256 65.6667 13.5781C65.5284 13.7015 65.3905 13.8249 65.2522 13.9483Z" fill="#226AB2"/>
<path d="M67.125 12.6964C67.2241 12.669 67.3232 12.642 67.4411 12.6094C67.3014 12.8045 67.2903 12.8087 67.125 12.6964Z" fill="#226AB2"/>
<path d="M68.3946 12.6164C68.3946 12.58 68.3946 12.5433 68.3946 12.4688C68.4709 12.502 68.5395 12.5318 68.6078 12.5616C68.6061 12.5831 68.604 12.6046 68.6022 12.6261C68.5308 12.6202 68.4594 12.6143 68.3877 12.6081C68.3874 12.6077 68.3946 12.6164 68.3946 12.6164Z" fill="#226AB2"/>
<path d="M65.0312 13.2355C65.0465 13.2351 65.061 13.2289 65.0738 13.2175C65.1082 13.2067 65.1421 13.196 65.1764 13.1856L65.1719 13.1797C65.1331 13.2431 65.0943 13.3069 65.0555 13.3703C65.0437 13.3641 65.0316 13.3578 65.0198 13.3516C65.0236 13.3128 65.0274 13.2743 65.0312 13.2355Z" fill="#226AB2"/>
<path d="M64.9805 14.1959C64.9503 14.2323 64.9205 14.2691 64.8904 14.3055C64.8824 14.2947 64.8744 14.2836 64.8665 14.2729C64.8966 14.2365 64.9268 14.2005 64.9569 14.1641C64.9649 14.1745 64.9729 14.1852 64.9805 14.1959Z" fill="#226AB2"/>
<path d="M70.627 13.227C69.65 11.9259 68.5281 11.1874 67.1023 11.4282C67.2499 11.2802 67.4308 11.2861 67.5951 11.2778C68.01 11.257 68.4179 11.309 68.8241 11.4594C69.397 11.6712 69.86 12.0975 70.3071 12.5709C70.3823 12.6506 70.4471 12.748 70.5258 12.8204C70.6245 12.9112 70.6564 13.0242 70.627 13.227Z" fill="#226AB2"/>
<path d="M69.0385 12.8388C68.9754 12.811 68.9127 12.7837 68.8496 12.7559C68.8562 12.7306 68.8628 12.705 68.8694 12.6797C68.9328 12.7053 68.9962 12.7313 69.0596 12.757C69.0527 12.7844 69.0454 12.8114 69.0385 12.8388Z" fill="#226AB2"/>
<path d="M65.3163 12.9266C65.3919 12.8469 65.4674 12.7672 65.5433 12.6875C65.4955 12.8213 65.4352 12.936 65.3101 12.919C65.3104 12.919 65.3163 12.9266 65.3163 12.9266Z" fill="#226AB2"/>
<path d="M65.1768 13.1905C65.1425 13.2012 65.1085 13.212 65.0742 13.2224C65.111 13.0643 65.2101 12.9919 65.3168 12.9298C65.3165 12.9295 65.3106 12.9222 65.3102 12.9219C65.2991 12.9624 65.295 13.0089 65.2766 13.0432C65.2482 13.0965 65.2104 13.1416 65.1768 13.1905Z" fill="#226AB2"/>
</svg>
