<svg width="24" height="24" viewBox="0 0 24 24" fill="none" xmlns="http://www.w3.org/2000/svg">
<path fill-rule="evenodd" clip-rule="evenodd" d="M6.59961 4.36719C4.94276 4.36719 3.59961 5.71033 3.59961 7.36719V16.6399C3.59961 18.2967 4.94275 19.6399 6.59961 19.6399H17.3996C19.0564 19.6399 20.3996 18.2967 20.3996 16.6399V7.36719C20.3996 5.71033 19.0564 4.36719 17.3996 4.36719H6.59961ZM12.625 5.89453C11.5204 5.89453 10.625 6.78996 10.625 7.89453V16.1127C10.625 17.2173 11.5204 18.1127 12.625 18.1127H16.7195C17.8241 18.1127 18.7195 17.2173 18.7195 16.1127V7.89453C18.7195 6.78996 17.8241 5.89453 16.7195 5.89453H12.625Z" fill="#226AB2"/>
</svg>
