<svg width="15" height="14" viewBox="0 0 15 14" fill="none" xmlns="http://www.w3.org/2000/svg">
<rect x="4.875" y="3.5" width="4.375" height="7" fill="white"/>
<path d="M7.50008 1.16406C4.28591 1.16406 1.66675 3.78323 1.66675 6.9974C1.66675 10.2116 4.28591 12.8307 7.50008 12.8307C10.7142 12.8307 13.3334 10.2116 13.3334 6.9974C13.3334 3.78323 10.7142 1.16406 7.50008 1.16406ZM7.06258 4.66406C7.06258 4.4249 7.26091 4.22656 7.50008 4.22656C7.73925 4.22656 7.93758 4.4249 7.93758 4.66406V7.58073C7.93758 7.8199 7.73925 8.01823 7.50008 8.01823C7.26091 8.01823 7.06258 7.8199 7.06258 7.58073V4.66406ZM8.03675 9.55239C8.00758 9.62823 7.96675 9.68656 7.91425 9.74489C7.85591 9.79739 7.79175 9.83823 7.72175 9.8674C7.65175 9.89656 7.57591 9.91406 7.50008 9.91406C7.42425 9.91406 7.34841 9.89656 7.27841 9.8674C7.20841 9.83823 7.14425 9.79739 7.08591 9.74489C7.03341 9.68656 6.99258 9.62823 6.96341 9.55239C6.93425 9.4824 6.91675 9.40656 6.91675 9.33073C6.91675 9.2549 6.93425 9.17906 6.96341 9.10906C6.99258 9.03906 7.03341 8.9749 7.08591 8.91656C7.14425 8.86406 7.20841 8.82323 7.27841 8.79406C7.41841 8.73573 7.58175 8.73573 7.72175 8.79406C7.79175 8.82323 7.85591 8.86406 7.91425 8.91656C7.96675 8.9749 8.00758 9.03906 8.03675 9.10906C8.06591 9.17906 8.08341 9.2549 8.08341 9.33073C8.08341 9.40656 8.06591 9.4824 8.03675 9.55239Z" fill="#CC3434"/>
</svg>
