<svg width="162" height="59" viewBox="0 0 162 59" fill="none" xmlns="http://www.w3.org/2000/svg">
<path d="M32.0517 0.688008C31.8383 0.697593 31.1852 0.605577 30.9807 0.542316C30.5616 0.412599 29.8388 0.212592 29.812 0.109074C30.1417 -0.113298 32.2255 -0.0116982 32.8108 0.562762C32.3533 0.651583 32.5718 0.665004 32.0517 0.688008Z" fill="#226AB2"/>
<path d="M35.5472 15.798C34.8679 15.8108 34.3133 15.2319 34.3024 14.4983C34.2909 13.7571 34.8162 13.1679 35.5006 13.1564C36.1824 13.1449 36.7396 13.7347 36.7498 14.4772C36.7594 15.1942 36.2213 15.7853 35.5472 15.798Z" fill="#226AB2"/>
<path d="M33.5434 16.1455C33.5453 16.8317 33.0917 17.4803 32.4859 17.658C31.7772 17.8663 31.105 17.435 30.9836 16.695C30.8743 16.0292 31.2277 15.3256 31.8239 15.0195C32.6744 14.5837 33.5415 15.1518 33.5434 16.1455Z" fill="#226AB2"/>
<path d="M40.0522 13.116C40.0541 13.8362 39.7582 14.3525 39.3039 14.5129C38.8246 14.6822 38.2495 14.4637 37.877 13.9531C37.4795 13.408 37.3192 12.7997 37.4904 12.1326C37.7134 11.2616 38.555 10.9747 39.2579 11.5255C39.7972 11.9485 40.0247 12.53 40.0522 13.116Z" fill="#226AB2"/>
<path d="M34.7659 11.2754C33.9947 11.2722 33.2547 10.6958 33.0521 9.94051C32.8374 9.14113 33.3467 8.43056 34.1608 8.39413C34.9282 8.35963 35.7238 8.90278 35.9807 9.63763C36.2848 10.5067 35.7117 11.2792 34.7659 11.2754Z" fill="#226AB2"/>
<path d="M42.9397 17.8294C42.9359 18.2288 42.8592 18.5796 42.624 18.8786C42.3129 19.2748 41.8771 19.3195 41.4905 18.9975C40.8719 18.4812 40.6994 17.2632 41.1499 16.5885C41.4956 16.0696 42.0656 16.03 42.4777 16.5003C42.8157 16.8856 42.934 17.3508 42.9397 17.8294Z" fill="#226AB2"/>
<path d="M37.3452 19.0612C37.3459 18.7104 37.4481 18.3947 37.6602 18.118C38.0922 17.5538 38.8481 17.55 39.2865 18.1097C39.7165 18.6593 39.7095 19.5162 39.2699 20.0568C38.8692 20.5494 38.1989 20.5814 37.7618 20.1213C37.482 19.8267 37.3484 19.4689 37.3452 19.0612Z" fill="#226AB2"/>
<path d="M37.9731 7.29886C38.5846 7.30333 39.2453 7.85543 39.3648 8.46248C39.4434 8.85866 39.2357 9.14812 38.8402 9.19094C38.5897 9.21777 38.3597 9.15068 38.1482 9.01841C37.7584 8.77559 37.4625 8.45608 37.3897 7.97811C37.3264 7.56021 37.5596 7.29566 37.9731 7.29886Z" fill="#226AB2"/>
<path d="M43.2652 11.7615C43.2371 12.182 43.1854 12.5954 42.7604 12.7731C42.3451 12.9462 41.9924 12.7437 41.7023 12.451C41.1578 11.9021 40.8799 11.2369 40.9802 10.4509C41.076 9.70011 41.6761 9.42662 42.2882 9.85922C42.9368 10.318 43.2154 10.9896 43.2652 11.7615Z" fill="#226AB2"/>
<path d="M30.5056 13.451C29.8231 13.4478 29.2564 12.8861 29.2627 12.2209C29.2691 11.5819 29.8065 11.0714 30.4692 11.0752C31.1721 11.0797 31.7529 11.6452 31.7529 12.3238C31.7529 12.9532 31.1976 13.4548 30.5056 13.451Z" fill="#226AB2"/>
<path d="M28.9026 18.2948C28.2201 18.2916 27.6533 17.7299 27.6597 17.0647C27.6661 16.4257 28.2035 15.9151 28.8662 15.919C29.5691 15.9234 30.1499 16.489 30.1499 17.1676C30.1505 17.797 29.5953 18.2986 28.9026 18.2948Z" fill="#226AB2"/>
<path d="M36.3588 20.8741C36.3236 21.5776 36.0322 22.1348 35.4079 22.4563C34.9849 22.6742 34.5319 22.6895 34.1153 22.4032C33.668 22.0959 33.482 21.6492 33.5095 21.1144C33.5389 20.5508 33.8002 20.0996 34.2424 19.7706C34.6872 19.4402 35.1792 19.3443 35.684 19.621C36.1664 19.8862 36.3287 20.3482 36.3588 20.8741Z" fill="#226AB2"/>
<path d="M39.2836 24.9493C39.2568 25.4803 39.037 25.9008 38.566 26.1436C38.2465 26.3085 37.9053 26.32 37.5903 26.1033C37.2529 25.8714 37.1123 25.534 37.1334 25.1301C37.1558 24.7052 37.3526 24.364 37.6868 24.1161C38.0222 23.8668 38.3941 23.794 38.775 24.0036C39.1386 24.2036 39.2613 24.5518 39.2836 24.9493Z" fill="#226AB2"/>
<path d="M38.4616 33.2079C38.4399 33.6481 38.2572 33.997 37.8661 34.1983C37.6009 34.335 37.3178 34.3446 37.0565 34.1651C36.7766 33.9727 36.6597 33.6929 36.6776 33.358C36.6961 33.0053 36.8597 32.7229 37.1364 32.5165C37.4143 32.3094 37.723 32.2494 38.0386 32.4232C38.3415 32.5893 38.4431 32.8781 38.4616 33.2079Z" fill="#226AB2"/>
<path d="M36.2092 31.0887C36.1875 31.529 36.0047 31.8779 35.6137 32.0792C35.3485 32.2159 35.0654 32.2255 34.804 32.0459C34.5242 31.8536 34.4072 31.5737 34.4251 31.2389C34.4436 30.8861 34.6072 30.6037 34.8839 30.3973C35.1619 30.1903 35.4705 30.1302 35.7862 30.304C36.0891 30.4702 36.1907 30.7596 36.2092 31.0887Z" fill="#226AB2"/>
<path d="M34.6189 28.8163C34.5971 29.2565 34.4144 29.6054 34.0233 29.8067C33.7581 29.9434 33.4751 29.953 33.2137 29.7735C32.9338 29.5811 32.8169 29.3013 32.8348 28.9664C32.8533 28.6137 33.0169 28.3313 33.2936 28.1249C33.5715 27.9178 33.8802 27.8578 34.1959 28.0316C34.4994 28.1977 34.6003 28.4872 34.6189 28.8163Z" fill="#226AB2"/>
<path d="M34.1819 6.33244C33.4311 6.25576 32.7627 5.92732 32.3231 5.22059C31.9007 4.54197 32.2157 3.94642 33.0004 3.93492C33.764 3.92342 34.4234 4.19755 34.9442 4.77329C35.2145 5.07234 35.4343 5.41612 35.2439 5.83338C35.0509 6.25704 34.6426 6.31136 34.1819 6.33244Z" fill="#226AB2"/>
<path d="M43.9595 14.6332C43.9659 14.3124 44.0016 13.9993 44.1556 13.7137C44.362 13.3296 44.7014 13.2593 45.0439 13.5258C45.2413 13.6792 45.3806 13.8811 45.4803 14.1073C45.7947 14.8191 45.9206 15.5527 45.6522 16.308C45.4611 16.846 45.0189 16.9528 44.6228 16.5476C44.109 16.0211 43.9857 15.3406 43.9595 14.6332Z" fill="#226AB2"/>
<path d="M40.5889 23.4079C40.5895 22.85 40.7288 22.3369 41.0803 21.8973C41.6311 21.2091 42.4484 21.326 42.7199 22.1631C43.0068 23.0475 42.8656 23.8878 42.2509 24.6002C41.7889 25.1364 41.1876 25.0533 40.8381 24.4367C40.6572 24.1178 40.5895 23.7715 40.5889 23.4079Z" fill="#226AB2"/>
<path d="M27.8083 13.771C27.7949 14.5212 27.1565 15.1435 26.4198 15.125C25.729 15.1078 25.2037 14.5224 25.2216 13.7901C25.2395 13.0604 25.8594 12.4527 26.5693 12.4681C27.2735 12.4834 27.8211 13.0598 27.8083 13.771Z" fill="#226AB2"/>
<path d="M45.8675 20.0636C45.8637 20.3889 45.8106 20.7416 45.6496 21.0669C45.5531 21.2618 45.4292 21.4503 45.1825 21.4464C44.9473 21.4432 44.817 21.2643 44.7346 21.0739C44.4151 20.3365 44.4157 19.594 44.7582 18.8636C44.8394 18.6904 44.9684 18.5358 45.1838 18.5332C45.3991 18.5307 45.5224 18.6828 45.6164 18.854C45.8145 19.2182 45.8688 19.617 45.8675 20.0636Z" fill="#226AB2"/>
<path d="M30.1183 8.115C29.4378 8.10606 28.9439 7.84918 28.5662 7.38143C28.2659 7.00953 28.1592 6.57757 28.3464 6.11685C28.5323 5.65805 28.9004 5.42226 29.3745 5.36922C30.0084 5.29829 30.5739 5.48424 31.0487 5.91237C31.4289 6.25487 31.6583 6.6747 31.5082 7.2121C31.3535 7.76675 30.9228 7.98592 30.4123 8.08752C30.2921 8.11181 30.1675 8.11117 30.1183 8.115Z" fill="#226AB2"/>
<path d="M40.5298 6.29608C40.5311 5.85389 40.8039 5.62896 41.2321 5.71715C41.9816 5.87178 42.8564 6.99834 42.8334 7.77856C42.8206 8.20157 42.5401 8.42139 42.1305 8.32873C41.3758 8.1594 40.5272 7.08141 40.5298 6.29608Z" fill="#226AB2"/>
<path d="M37.1876 2.86376C38.1896 2.88995 39.642 4.0344 39.927 5.02166C40.1028 5.63126 39.798 6.01083 39.1724 5.9629C38.1794 5.88622 36.8164 4.81142 36.5058 3.85995C36.3014 3.23693 36.5678 2.84778 37.1876 2.86376Z" fill="#226AB2"/>
<path d="M38.785 1.89806C38.8937 1.92873 39.0796 1.95876 39.2477 2.03289C40.4765 2.5722 41.5538 3.3307 42.4178 4.3761C42.5986 4.59527 42.9034 4.86813 42.7053 5.15696C42.4887 5.47326 42.1264 5.25153 41.8567 5.14226C40.6215 4.64128 39.5736 3.86298 38.6956 2.85081C38.5748 2.71151 38.4713 2.54984 38.3914 2.38242C38.2317 2.04567 38.3486 1.87825 38.785 1.89806Z" fill="#226AB2"/>
<path d="M33.2754 1.30454C34.2467 1.36907 35.142 1.65726 35.9113 2.27518C36.1682 2.48157 36.4807 2.72184 36.3535 3.10971C36.2251 3.50078 35.8372 3.4995 35.5055 3.4995C34.5113 3.49886 33.6192 3.16658 32.809 2.59212C32.7483 2.54931 32.6907 2.50074 32.6396 2.44643C32.4364 2.23045 32.1744 2.01446 32.2997 1.67707C32.4236 1.34479 32.7578 1.3384 33.0531 1.30581C33.1272 1.29751 33.2019 1.30454 33.2754 1.30454Z" fill="#226AB2"/>
<path d="M45.7531 9.21293C45.7582 9.4762 45.6719 9.53818 45.4706 9.44105C45.3524 9.38418 45.2381 9.30814 45.1396 9.21996C44.3121 8.47553 43.6661 7.59434 43.2329 6.55917C43.1619 6.38919 43.0335 6.16235 43.2105 6.02816C43.3907 5.89141 43.5703 6.08695 43.7051 6.20452C44.576 6.96046 45.2412 7.87295 45.6809 8.9503C45.7205 9.04679 45.7371 9.15286 45.7531 9.21293Z" fill="#226AB2"/>
<path d="M27.8089 9.19159C27.8045 9.86254 27.2562 10.4153 26.5999 10.4102C25.8951 10.4051 25.313 9.77436 25.3194 9.02481C25.3258 8.28038 25.7967 7.73659 26.4396 7.73148C27.1463 7.72573 27.814 8.43757 27.8089 9.19159Z" fill="#226AB2"/>
<path d="M45.2251 10.3852C45.2277 10.3507 45.2245 10.2484 45.2455 10.1513C45.2877 9.95833 45.404 9.88676 45.5612 10.0286C45.698 10.1519 45.8302 10.2919 45.9261 10.4484C46.6616 11.6562 47.1415 12.9635 47.3536 14.3674C47.3887 14.6013 47.4827 14.9502 47.229 15.0492C46.9708 15.1496 46.8296 14.8192 46.6942 14.623C46.0091 13.6307 45.2424 11.4325 45.2251 10.3852Z" fill="#226AB2"/>
<path d="M22.1401 10.795C22.1408 10.1042 22.6009 9.58856 23.2085 9.59878C23.8686 9.60965 24.4629 10.2384 24.4699 10.933C24.4763 11.5765 23.9824 12.0915 23.3555 12.0947C22.6839 12.0979 22.1401 11.5164 22.1401 10.795Z" fill="#226AB2"/>
<path d="M22.0659 14.8291C22.0666 14.2783 22.4333 13.8668 22.9183 13.8751C23.4449 13.8841 23.919 14.3857 23.9248 14.9391C23.9299 15.4522 23.5356 15.8631 23.0359 15.8656C22.4998 15.8682 22.0659 15.4049 22.0659 14.8291Z" fill="#226AB2"/>
<path d="M24.8369 17.8877C24.8376 17.3369 25.2043 16.9254 25.6893 16.9337C26.2159 16.9427 26.69 17.4443 26.6958 17.9976C26.7009 18.5108 26.3066 18.9216 25.8069 18.9242C25.2708 18.9268 24.8369 18.4628 24.8369 17.8877Z" fill="#226AB2"/>
<path d="M21.3872 17.6504C21.3878 17.0996 21.7546 16.6881 22.2396 16.6964C22.7662 16.7054 23.2403 17.207 23.2461 17.7603C23.2512 18.2735 22.8569 18.6843 22.3572 18.6869C21.8204 18.6895 21.3866 18.2255 21.3872 17.6504Z" fill="#226AB2"/>
<path d="M17.4443 17.6504C17.445 17.0996 17.8118 16.6881 18.2968 16.6964C18.8233 16.7054 19.2974 17.207 19.3032 17.7603C19.3083 18.2735 18.914 18.6843 18.4143 18.6869C17.8782 18.6895 17.4443 18.2255 17.4443 17.6504Z" fill="#226AB2"/>
<path d="M43.6797 25.4622C43.6963 24.7235 43.8222 24.1146 44.1168 23.5484C44.1858 23.4161 44.265 23.2858 44.3609 23.1733C44.5142 22.9925 44.6848 22.795 44.9526 22.8762C45.2101 22.9535 45.2983 23.197 45.327 23.4372C45.4472 24.4545 45.196 25.3779 44.5922 26.1964C44.4759 26.3543 44.3276 26.5242 44.1021 26.4782C43.858 26.4284 43.7928 26.2067 43.7513 25.9945C43.711 25.7856 43.6944 25.5728 43.6797 25.4622Z" fill="#226AB2"/>
<path d="M29.6342 2.26784C30.1677 2.29787 30.7569 2.45507 31.2489 2.87425C31.4694 3.06212 31.6649 3.2896 31.5716 3.61677C31.4796 3.93755 31.2054 4.04617 30.9185 4.09154C30.1696 4.20976 29.4974 4.01039 28.93 3.5043C28.6903 3.29088 28.4431 3.03272 28.5785 2.66466C28.7076 2.31385 29.0469 2.30299 29.3543 2.26912C29.415 2.26209 29.477 2.26784 29.6342 2.26784Z" fill="#226AB2"/>
<path d="M41.9507 27.4487C41.8868 28.0992 41.7066 28.7274 41.1584 29.1772C40.7417 29.5184 40.3558 29.3989 40.1762 28.8916C39.9359 28.2123 40.2292 27.149 40.7941 26.6998C41.0082 26.5298 41.2459 26.3605 41.5373 26.5145C41.8977 26.7056 41.9296 27.0615 41.9507 27.4487Z" fill="#226AB2"/>
<path d="M47.7466 19.0816C47.7683 19.6963 47.7606 20.311 47.5472 20.8976C47.489 21.058 47.4341 21.2778 47.2379 21.2759C47.036 21.274 46.9881 21.0471 46.9491 20.8848C46.6545 19.6624 46.6219 18.4343 46.9018 17.2036C46.9101 17.1671 46.9229 17.1307 46.9389 17.0975C47.0066 16.9563 47.0245 16.7435 47.2181 16.7422C47.4296 16.7403 47.475 16.9569 47.5293 17.1154C47.6565 17.4834 47.721 17.8675 47.7427 18.256C47.7587 18.5301 47.7466 18.8062 47.7466 19.0816Z" fill="#226AB2"/>
<path d="M36.8328 1.15282C37.16 1.39883 37.567 1.50938 37.8776 1.78159C37.9958 1.88575 38.1792 1.98735 38.1108 2.16947C38.0412 2.3535 37.8341 2.31133 37.6808 2.29535C36.668 2.18864 35.751 1.77201 34.8328 1.36433C34.5279 1.22886 34.2359 1.0608 33.9471 0.891469C33.8155 0.81415 33.6589 0.741305 33.6187 0.536186C33.8231 0.37388 34.057 0.414774 34.2864 0.434583C35.0468 0.499122 35.7414 0.821818 36.4699 1.01288C36.4871 1.00841 36.5037 1.00457 36.521 1.0001C36.6335 0.987957 36.7223 1.04291 36.8079 1.10617C36.8162 1.12087 36.8245 1.13684 36.8328 1.15282Z" fill="#226AB2"/>
<path d="M20.7996 11.9519C20.783 12.2638 20.7401 12.534 20.604 12.782C20.2826 13.3686 19.611 13.3941 19.2577 12.8318C18.9554 12.3513 18.9835 11.6164 19.3222 11.1602C19.7331 10.6062 20.3459 10.6675 20.6475 11.2925C20.7529 11.511 20.7817 11.7468 20.7996 11.9519Z" fill="#226AB2"/>
<path d="M20.6292 15.2234C20.6125 15.5352 20.5697 15.8055 20.4336 16.0535C20.1122 16.6401 19.4406 16.6656 19.0873 16.1033C18.785 15.6228 18.8131 14.8879 19.1518 14.4317C19.5627 13.8777 20.1755 13.939 20.4771 14.564C20.5825 14.7825 20.6113 15.0183 20.6292 15.2234Z" fill="#226AB2"/>
<path d="M38.502 29.5816C38.5052 30.2749 38.0093 30.8941 37.4387 30.9088C36.9761 30.921 36.6412 30.5293 36.6387 29.974C36.6361 29.2922 37.1473 28.6832 37.7295 28.6749C38.1985 28.6685 38.4994 29.0212 38.502 29.5816Z" fill="#226AB2"/>
<path d="M36.7964 26.5865C36.7996 27.2798 36.3038 27.899 35.7331 27.9137C35.2705 27.9259 34.9357 27.5341 34.9331 26.9789C34.9306 26.297 35.4418 25.6881 36.0239 25.6798C36.4936 25.6734 36.7939 26.0261 36.7964 26.5865Z" fill="#226AB2"/>
<path d="M34.4771 24.8658C34.4803 25.5591 33.9844 26.1783 33.4138 26.193C32.9512 26.2052 32.6163 25.8134 32.6138 25.2582C32.6112 24.5763 33.1224 23.9674 33.7046 23.9591C34.1736 23.9527 34.4739 24.3054 34.4771 24.8658Z" fill="#226AB2"/>
<path d="M26.6921 3.7889C27.1611 3.82341 27.5924 4.02533 27.8595 4.50522C28.1567 5.03879 27.8812 5.5928 27.2851 5.67203C26.7106 5.74871 25.9726 5.26819 25.8032 4.70842C25.6435 4.18125 26.0186 3.76718 26.6921 3.7889Z" fill="#226AB2"/>
<path d="M22.3153 7.71141C22.3051 7.78361 22.2974 7.91014 22.2674 8.03091C22.1543 8.48651 21.7971 8.79835 21.413 8.78684C21.0092 8.7747 20.7204 8.4699 20.6316 7.96893C20.567 7.60534 20.6354 7.26539 20.8271 6.95867C21.1881 6.38101 21.7843 6.39379 22.1338 6.97528C22.2597 7.18615 22.307 7.41683 22.3153 7.71141Z" fill="#226AB2"/>
<path d="M17.8467 12.2277C17.8282 12.7727 17.7048 13.2239 17.3892 13.606C17.2384 13.7888 17.0511 13.9121 16.809 13.8648C16.5412 13.8124 16.4262 13.5919 16.3783 13.353C16.2498 12.7191 16.3744 12.1325 16.7649 11.6155C16.9131 11.4187 17.1016 11.2711 17.3655 11.3261C17.6518 11.3855 17.7432 11.6277 17.8064 11.8743C17.8403 12.0053 17.8384 12.1465 17.8467 12.2277Z" fill="#226AB2"/>
<path d="M16.969 15.9786C16.9524 16.4553 16.845 16.849 16.5696 17.1832C16.438 17.3429 16.2744 17.4503 16.0623 17.4094C15.8284 17.3634 15.7281 17.171 15.6859 16.9621C15.5741 16.4081 15.6827 15.8956 16.0239 15.4438C16.1536 15.2719 16.3185 15.1428 16.5492 15.1908C16.799 15.2425 16.8796 15.454 16.9345 15.67C16.9633 15.7844 16.9613 15.9071 16.969 15.9786Z" fill="#226AB2"/>
<path d="M25.0575 6.50369C25.0524 7.01105 24.7003 7.40915 24.2543 7.41171C23.729 7.41426 23.2638 6.87175 23.2612 6.25384C23.2587 5.73497 23.5782 5.37074 24.028 5.37905C24.5808 5.38927 25.0632 5.91645 25.0575 6.50369Z" fill="#226AB2"/>
<path d="M29.5449 0.797852C30.212 0.838748 30.9431 0.937153 31.6255 1.26113C31.8032 1.34547 32.023 1.44005 31.9949 1.67584C31.9655 1.92121 31.7265 1.94358 31.5309 1.96275C30.499 2.06371 29.5583 1.76721 28.6708 1.26049C28.5864 1.21256 28.4976 1.14483 28.5149 1.02661C28.5328 0.903925 28.6446 0.886673 28.7366 0.859835C28.9756 0.789545 29.2235 0.799769 29.5449 0.797852Z" fill="#226AB2"/>
<path d="M19.6422 8.20077C19.6224 8.63657 19.4844 9.04489 19.115 9.33307C18.7393 9.62638 18.3342 9.50177 18.1578 9.05639C17.9591 8.55477 18.1731 7.77903 18.6019 7.45186C18.8057 7.29658 19.0313 7.24163 19.2607 7.37135C19.5681 7.54451 19.632 7.8506 19.6422 8.20077Z" fill="#226AB2"/>
<path d="M45.9889 26.0918C45.6298 25.4253 46.2803 22.8431 46.8937 22.5C47.341 23.0623 46.6867 25.6579 45.9889 26.0918Z" fill="#226AB2"/>
<path d="M15.3222 12.228C15.2858 12.7143 15.1919 13.1654 14.8909 13.5398C14.7752 13.6836 14.6378 13.8274 14.4212 13.7718C14.1969 13.7143 14.1075 13.5322 14.0806 13.3258C14.0008 12.7149 14.149 12.1577 14.5088 11.6637C14.618 11.5142 14.7503 11.3577 14.9676 11.4126C15.1938 11.4701 15.2551 11.6701 15.2928 11.8708C15.3152 11.9928 15.3139 12.1193 15.3222 12.228Z" fill="#226AB2"/>
<path d="M14.3764 15.8159C14.34 16.3021 14.2461 16.7533 13.9451 17.1277C13.8294 17.2715 13.692 17.4153 13.4754 17.3597C13.2511 17.3022 13.1617 17.1201 13.1348 16.9137C13.055 16.3028 13.2032 15.7456 13.563 15.2516C13.6722 15.1021 13.8045 14.9455 14.0218 15.0005C14.248 15.058 14.3093 15.258 14.347 15.4587C14.3694 15.5814 14.3681 15.7079 14.3764 15.8159Z" fill="#226AB2"/>
<path d="M17.1125 8.22934C17.0748 8.72009 16.9093 9.2102 16.5502 9.61788C16.425 9.76038 16.2671 9.88179 16.0626 9.80958C15.8415 9.73226 15.7866 9.52459 15.7891 9.32075C15.7962 8.77696 15.9783 8.29004 16.315 7.86766C16.448 7.70088 16.6045 7.52708 16.8441 7.61398C17.0991 7.70727 17.1093 7.94818 17.1125 8.22934Z" fill="#226AB2"/>
<path d="M43.8155 28.2299C43.7063 28.8855 43.4411 29.559 42.8896 30.0913C42.82 30.1584 42.7375 30.237 42.6283 30.1801C42.5267 30.1271 42.512 30.0153 42.5184 29.9181C42.5708 29.1615 42.7848 28.4676 43.3152 27.9072C43.4066 27.8107 43.5171 27.7097 43.673 27.7743C43.7734 27.8152 43.8136 27.9264 43.8155 28.2299Z" fill="#226AB2"/>
<path d="M13.3646 11.5773C13.3045 12.1588 13.1269 12.7243 12.7218 13.1946C12.6099 13.3243 12.477 13.4764 12.2808 13.3882C12.0834 13.2994 12.1038 13.1032 12.1339 12.9288C12.2336 12.3543 12.4444 11.822 12.7684 11.3402C12.863 11.2003 12.9767 11.0213 13.1799 11.0955C13.378 11.167 13.3588 11.3715 13.3646 11.5773Z" fill="#226AB2"/>
<path d="M14.0048 9.11249C14.155 8.49585 14.4566 7.9182 15.0017 7.50349C15.2349 7.32585 15.4739 7.45301 15.4394 7.74183C15.3569 8.43834 15.0515 9.02558 14.4943 9.45946C14.3901 9.54062 14.2649 9.55979 14.1473 9.48758C14.0297 9.41537 14.0004 9.29396 14.0048 9.11249Z" fill="#226AB2"/>
<path d="M26.8692 1.167C27.1191 1.20534 27.5363 1.14016 27.5875 1.5242C27.6411 1.92549 27.2264 2.01175 26.9255 2.10057C26.5772 2.20281 26.2181 2.19387 25.8679 2.07501C25.6992 2.0175 25.5216 1.94594 25.4992 1.74912C25.4749 1.53762 25.6615 1.45646 25.8162 1.38234C26.1337 1.23026 26.4718 1.16636 26.8692 1.167Z" fill="#226AB2"/>
<path d="M27.1974 0.177734C27.4472 0.189236 27.8645 0.169427 27.9156 0.285086C27.9693 0.405857 27.5546 0.431418 27.2536 0.458256C26.9053 0.488928 26.5462 0.48637 26.196 0.450586C26.0273 0.433333 25.8497 0.411607 25.8273 0.35282C25.8031 0.289559 25.9896 0.265277 26.1443 0.242912C26.4619 0.196904 26.7999 0.177734 27.1974 0.177734Z" fill="#226AB2"/>
<path d="M21.3033 4.08169C21.309 3.56858 21.6643 3.11361 22.0509 3.1232C22.3525 3.13086 22.5928 3.43758 22.5896 3.81076C22.5858 4.28554 22.1864 4.76159 21.8049 4.74689C21.5001 4.73539 21.2988 4.46829 21.3033 4.08169Z" fill="#226AB2"/>
<path d="M19.0557 5.35633C19.0582 4.98316 19.54 4.27451 19.8896 4.13009C20.1803 4.00996 20.4104 4.14671 20.4481 4.46301C20.5056 4.94801 19.9631 5.66433 19.4813 5.74037C19.2244 5.78063 19.0538 5.62663 19.0557 5.35633Z" fill="#226AB2"/>
<path d="M23.9443 3.18568C23.5258 3.18952 23.1635 2.86746 23.1705 2.49684C23.1769 2.17287 23.4549 1.93325 23.8274 1.93069C24.2773 1.92749 24.6869 2.23166 24.6971 2.57544C24.7067 2.90708 24.3674 3.18185 23.9443 3.18568Z" fill="#226AB2"/>
<path d="M40.5496 31.4261C40.5023 31.8631 40.3062 32.2977 39.9285 32.6395C39.8269 32.7315 39.7112 32.8236 39.5624 32.7526C39.4224 32.6855 39.3822 32.5443 39.3777 32.405C39.3598 31.8599 39.5374 31.3935 39.9573 31.0401C40.071 30.9449 40.2084 30.8625 40.3669 30.9372C40.5419 31.0209 40.5522 31.1871 40.5496 31.4261Z" fill="#226AB2"/>
<path d="M11.3021 16.3406C11.3111 15.9636 11.3443 15.5898 11.5079 15.2428C11.5673 15.1169 11.6427 14.9853 11.8025 14.9968C11.959 15.0083 12.0204 15.1431 12.0651 15.2786C12.2312 15.7802 12.1789 16.2684 11.961 16.74C11.8824 16.91 11.782 17.1055 11.5577 17.0582C11.336 17.0109 11.329 16.7885 11.3047 16.6032C11.2932 16.517 11.3021 16.4282 11.3021 16.3406Z" fill="#226AB2"/>
<path d="M18.2628 4.68217C18.2589 5.11796 17.6123 5.81575 17.1829 5.84323C16.9254 5.85984 16.7899 5.72501 16.8666 5.47708C17.025 4.96333 17.3548 4.57992 17.8468 4.36969C18.0787 4.27065 18.2653 4.42912 18.2628 4.68217Z" fill="#226AB2"/>
<path d="M43.9736 30.1706C44.0484 29.4204 44.7839 27.9795 45.235 27.667C45.3743 28.1769 44.5807 29.7776 43.9736 30.1706Z" fill="#226AB2"/>
<path d="M23.4132 1.50433C23.2419 1.4743 23.0451 1.50625 22.9997 1.30177C22.9595 1.11901 23.1282 1.04745 23.2508 0.974599C23.5608 0.791846 23.8905 0.657656 24.2509 0.621233C24.4004 0.606536 24.5602 0.605258 24.6228 0.7829C24.679 0.94201 24.5672 1.04233 24.4579 1.12349C24.1416 1.358 23.778 1.4596 23.4132 1.50433Z" fill="#226AB2"/>
<path d="M41.8867 31.5645C41.9743 32.1715 41.219 33.3313 40.5659 33.6105C40.8547 32.7984 41.1806 32.1038 41.8867 31.5645Z" fill="#226AB2"/>
<path d="M20.0352 3.32304C19.8423 3.29684 19.74 3.17926 19.8186 2.94283C19.9055 2.67893 20.4269 2.28658 20.7049 2.27316C20.9081 2.26358 21.0084 2.35176 20.9669 2.5671C20.9094 2.86424 20.3643 3.32432 20.0352 3.32304Z" fill="#226AB2"/>
<path d="M47.962 20.1729C47.9 21.4662 47.7268 22.7455 47.3613 23.9941C47.4783 22.709 47.6687 21.4349 47.962 20.1729Z" fill="#226AB2"/>
<path d="M36.4714 1.01183C36.1391 0.772841 35.7321 0.694244 35.394 0.464844C36.4516 0.785621 37.4797 1.18052 38.4395 1.75434C37.904 1.5537 37.3692 1.35241 36.8337 1.15177L36.8433 1.16135C36.7232 1.08978 36.58 1.07509 36.4599 1.00416L36.4714 1.01183Z" fill="#226AB2"/>
<path d="M45.3866 28.7478C45.7381 28.0008 46.0889 27.2538 46.4403 26.5068C46.255 27.335 45.8691 28.0673 45.4697 28.7938C45.3866 28.8692 45.363 28.8207 45.3866 28.7478Z" fill="#226AB2"/>
<path d="M39.0018 34.373C39.028 34.7341 38.8408 35.044 38.4772 35.2395C38.3928 34.8376 38.6261 34.4523 39.0018 34.373Z" fill="#226AB2"/>
<path d="M41.4476 33.5261C41.7531 32.9689 42.1991 32.528 42.6361 32.0801C42.323 32.6309 41.9601 33.1402 41.4399 33.5191L41.4476 33.5261Z" fill="#226AB2"/>
<path d="M43.0951 31.8436C43.313 31.4225 43.6306 31.0883 43.9418 30.749C43.7188 31.1657 43.46 31.551 43.0894 31.8379L43.0951 31.8436Z" fill="#226AB2"/>
<path d="M39.5068 34.9521C39.3227 35.3336 38.9585 35.5349 38.6562 35.7975C38.9304 35.5062 39.1476 35.1566 39.5138 34.9598L39.5068 34.9521Z" fill="#226AB2"/>
<path d="M41.4399 33.5186L41.4454 33.524C41.4454 33.5236 41.4399 33.5186 41.4399 33.5186Z" fill="#226AB2"/>
<path d="M39.5129 34.9576C39.5129 34.9576 39.5074 34.9521 39.5078 34.9521C39.5083 34.9521 39.5129 34.9576 39.5129 34.9576Z" fill="#226AB2"/>
<path d="M36.4585 1.00488C36.6061 1.00744 36.7371 1.05281 36.8419 1.16208C36.6949 1.15888 36.5652 1.11223 36.4585 1.00488Z" fill="#226AB2"/>
<path d="M0.803861 24.4095C0.554012 24.6747 0.304163 24.9399 0.0543144 25.2057C0.0364224 25.1815 0.018531 25.1565 0 25.1323C0.447939 24.5846 0.902267 24.0447 1.33998 23.483C1.44158 23.3526 1.74 23.2964 1.53488 22.9533C1.52529 22.9373 1.62178 22.814 1.67162 22.7443C2.75153 21.2229 4.10429 20.396 5.69284 20.2759C6.87244 20.187 8.03158 20.3583 9.06293 21.2171C9.55112 21.6235 10.0751 21.9692 10.5307 22.428C10.9844 22.8855 11.4547 23.3328 11.7806 23.9833C12.0062 24.4338 12.3212 24.8089 12.5787 25.2345C13.7538 27.1777 14.6995 29.3036 15.5162 31.5184C16.7424 34.8431 17.9188 38.1972 19.1323 41.5296C20.2013 44.4645 21.3547 47.342 22.8136 49.9989C23.7344 51.6763 24.7721 53.2182 26.0232 54.5102C28.1799 56.7359 30.6407 57.7576 33.3999 57.4957C34.2491 57.4151 35.0887 57.1723 35.9322 56.9953C36.1067 56.9589 36.2766 56.886 36.4485 56.8298C36.4747 56.872 36.5009 56.9142 36.5271 56.9563C36.4734 56.9787 36.4166 56.9928 36.3667 57.0254C35.09 57.8592 33.7705 58.5206 32.3461 58.8254C30.0924 59.3072 27.9869 58.7826 26.0022 57.3723C24.3101 56.1697 22.9183 54.5071 21.6595 52.6482C19.8869 50.0315 18.4326 47.1311 17.1367 44.1041C16.067 41.6063 15.0695 39.0586 14.0395 36.5326C13.9922 36.4163 13.9455 36.2994 13.9027 36.1927C13.8631 36.2016 13.8484 36.2016 13.8356 36.2087C13.8235 36.2151 13.8069 36.2253 13.8037 36.2387C13.7947 36.2745 13.7864 36.3135 13.7864 36.3505C13.78 42.4217 13.7736 48.4928 13.7672 54.5633C13.7672 54.5812 13.7577 54.5997 13.7525 54.6176C13.4235 54.7543 7.97535 54.7275 7.38236 54.5729C7.38236 54.362 7.38236 54.1364 7.38236 53.9109C7.38236 44.7738 7.38236 35.6368 7.38236 26.4997C7.38236 26.2684 7.38492 26.0371 7.38108 25.8058C7.37469 25.4096 7.32485 25.0422 6.98746 24.8735C6.93442 24.8466 6.88969 24.7942 6.84113 24.754C6.85838 24.7201 6.87563 24.6869 6.89288 24.653C7.03155 24.7258 7.17021 24.7981 7.31335 24.8728C7.43731 24.4095 7.03155 24.1667 7.05966 23.7539C6.82962 23.522 6.30181 23.9386 6.29223 23.1808C6.53952 23.2089 6.77275 23.2357 7.00599 23.2619L6.99257 23.2459C7.15487 23.3565 7.31782 23.4677 7.46734 23.5693C7.58045 23.4057 7.65329 23.299 7.73125 23.1859C7.70441 23.1443 7.68333 23.0779 7.64818 23.0625C7.04625 22.7897 6.4622 22.4133 5.81362 22.3762C5.14394 22.3385 4.47555 22.3577 3.81163 22.5679C2.87614 22.8638 2.08378 23.5009 1.29845 24.1686C1.22816 24.2287 1.14317 24.2607 1.06457 24.3054L1.07288 24.3162C1.13486 24.2268 1.20451 24.1431 1.25691 24.0447C1.29078 23.9814 1.29845 23.8958 1.31826 23.8204C1.54957 23.8523 1.66076 23.6408 1.74894 23.3942C1.60964 23.5411 1.47034 23.6881 1.33104 23.8357C1.13422 23.9501 0.95147 24.0837 0.883736 24.375C0.858176 24.398 0.831977 24.4089 0.803861 24.4095ZM11.1199 24.3853C11.1742 24.0114 11.1154 23.8031 10.9333 23.6357C10.7876 23.5022 10.6687 23.3226 10.5301 23.1756C9.70576 22.3028 8.85206 21.5168 7.79579 21.1264C7.04625 20.849 6.29478 20.7532 5.5299 20.7915C5.22701 20.8069 4.89409 20.796 4.62124 21.0689C7.25009 20.6247 9.31853 21.9865 11.1199 24.3853ZM8.19261 23.6779C8.20603 23.6274 8.21881 23.5776 8.23223 23.5271C8.11529 23.4798 7.99835 23.4319 7.88142 23.3846C7.86928 23.4312 7.85713 23.4785 7.84499 23.5252C7.96001 23.5763 8.07631 23.6268 8.19261 23.6779Z" fill="#226AB2"/>
<path d="M24.4373 19.4208C26.5959 19.3901 28.6924 19.3601 30.7756 19.3301C30.8733 19.8112 30.9053 48.2186 30.8203 49.0448C30.6164 49.0723 30.4989 48.8691 30.3653 48.7387C29.364 47.7598 28.548 46.554 27.8176 45.2498C26.5243 42.9411 25.5096 40.4266 24.5447 37.8783C24.452 37.6336 24.4418 37.3198 24.4412 37.038C24.4354 32.2966 24.4373 27.5546 24.4373 22.8133C24.4373 21.9072 24.4373 21.0017 24.4373 20.0956C24.4373 19.9052 24.4373 19.7154 24.4373 19.4208Z" fill="#226AB2"/>
<path d="M8.75977 18.1899C9.06265 18.117 9.36298 18.0161 9.66842 17.9758C10.9803 17.8039 12.2053 18.1426 13.3324 19.0391C14.4488 19.9273 15.3293 21.1293 16.1127 22.459C17.2763 24.4348 18.2131 26.5889 19.0432 28.8145C20.2023 31.9226 21.3129 35.0607 22.451 38.1822C23.6095 41.3593 24.821 44.5007 26.368 47.4049C27.4499 49.4356 28.671 51.306 30.2391 52.7604C31.9376 54.3355 33.8258 55.1355 35.9319 55.0358C35.9862 55.0333 36.0406 55.0448 36.1025 55.1521C35.785 55.2026 35.468 55.2652 35.1492 55.3017C31.7529 55.6889 28.862 54.2767 26.4179 51.2651C24.9974 49.5149 23.8632 47.4854 22.8612 45.325C21.4995 42.3894 20.4113 39.2819 19.3537 36.154C18.2853 32.9929 17.2214 29.8286 16.1153 26.6885C15.5338 25.038 14.829 23.4654 13.9874 22.0021C13.3868 20.9574 12.7184 19.9995 11.864 19.28C10.9816 18.5368 10.0218 18.1739 8.96041 18.3157C8.91568 18.3215 8.87031 18.3202 8.82558 18.3177C8.81216 18.317 8.79874 18.3023 8.78596 18.294C8.77766 18.2595 8.76871 18.2244 8.75977 18.1899Z" fill="#226AB2"/>
<path d="M5.0776 23.9826C4.89868 24.0541 4.71592 24.127 4.53125 24.2005C4.49483 23.7672 4.21175 24.0592 4.07373 23.9302C4.49419 23.6413 5.01689 23.6893 5.43672 23.9813C5.60988 24.1014 5.83481 24.0982 6.03546 24.1538C6.14153 24.1832 6.24633 24.2196 6.41502 24.2733C5.77858 24.5609 5.30828 24.4446 5.0776 23.9826Z" fill="#226AB2"/>
<path d="M6.00021 23.1648C5.77784 23.1648 5.5363 23.2383 5.33757 23.1501C4.86216 22.9398 4.42125 23.1558 3.96692 23.2242C3.8634 23.2395 3.75988 23.2478 3.65381 23.191C4.4238 22.8811 5.19827 22.72 6.00021 23.1648Z" fill="#226AB2"/>
<path d="M2.81982 24.193C3.15402 23.5879 3.66075 23.662 4.13169 23.5879C4.06843 23.6345 4.009 23.6991 3.94063 23.7246C3.63007 23.8409 3.29907 23.8812 3.04411 24.1866C3.00641 24.2314 2.90865 24.193 2.81982 24.193Z" fill="#226AB2"/>
<path d="M1.21045 25.7108C1.33186 25.2686 1.50503 25.1159 1.97469 25.0283C1.71973 25.2558 1.46541 25.4833 1.21045 25.7108Z" fill="#226AB2"/>
<path d="M4.66357 23.4153C4.84633 23.3648 5.02908 23.3149 5.24634 23.2549C4.98882 23.6146 4.96838 23.6223 4.66357 23.4153Z" fill="#226AB2"/>
<path d="M7.00401 23.2605C7.00401 23.1934 7.00401 23.1257 7.00401 22.9883C7.14459 23.0496 7.27112 23.1046 7.397 23.1595C7.3938 23.1992 7.38997 23.2388 7.38677 23.2784C7.25514 23.2675 7.12351 23.2567 6.99123 23.2452C6.99059 23.2445 7.00401 23.2605 7.00401 23.2605Z" fill="#226AB2"/>
<path d="M0.802825 24.4085C0.830941 24.4079 0.857779 24.3964 0.881422 24.3753C0.944683 24.3555 1.00731 24.3357 1.07057 24.3165L1.06226 24.3057C0.990691 24.4226 0.919123 24.5402 0.847555 24.6571C0.825829 24.6456 0.803464 24.6341 0.781738 24.6226C0.788767 24.551 0.795796 24.4801 0.802825 24.4085Z" fill="#226AB2"/>
<path d="M0.709255 26.1701C0.653662 26.2372 0.598707 26.3049 0.543115 26.372C0.528418 26.3522 0.51372 26.3318 0.499023 26.312C0.554616 26.2449 0.610209 26.1784 0.665802 26.1113C0.680499 26.1305 0.695197 26.1503 0.709255 26.1701Z" fill="#226AB2"/>
<path d="M11.1207 24.386C9.31935 21.9872 7.25091 20.6255 4.62207 21.0696C4.89428 20.7967 5.22784 20.8076 5.53073 20.7923C6.29561 20.7539 7.04771 20.8498 7.79662 21.1271C8.85289 21.5175 9.70659 22.3035 10.5309 23.1764C10.6696 23.3233 10.7891 23.5029 10.9341 23.6364C11.1162 23.8039 11.175 24.0122 11.1207 24.386Z" fill="#226AB2"/>
<path d="M8.19152 23.6761C8.07522 23.625 7.95956 23.5745 7.84326 23.5234C7.8554 23.4767 7.86754 23.4295 7.87968 23.3828C7.99662 23.4301 8.11356 23.478 8.2305 23.5253C8.21772 23.5758 8.2043 23.6256 8.19152 23.6761Z" fill="#226AB2"/>
<path d="M1.32889 23.8345C1.46819 23.6875 1.60749 23.5405 1.74743 23.3936C1.65925 23.6402 1.54806 23.8517 1.31738 23.8204C1.31802 23.8204 1.32889 23.8345 1.32889 23.8345Z" fill="#226AB2"/>
<path d="M1.07147 24.3175C1.00821 24.3373 0.945585 24.3571 0.882324 24.3763C0.950058 24.0849 1.13281 23.9513 1.32962 23.837C1.32898 23.8363 1.31812 23.8229 1.31748 23.8223C1.29703 23.897 1.28937 23.9827 1.2555 24.0459C1.2031 24.1443 1.13345 24.2274 1.07147 24.3175Z" fill="#226AB2"/>
<path d="M60.0288 34.518L60.3049 30.5166L60.5042 25.8883L60.6276 21.678V20.2568C62.195 20.2709 63.8296 20.2779 65.5312 20.2779L67.3594 20.2677L70.1109 20.2575L69.9966 22.5144L69.0924 22.462C68.8451 22.448 68.5019 22.4377 68.0642 22.4307C67.6265 22.4237 67.1786 22.4205 66.7217 22.4205C65.7319 22.4205 65.0922 22.4224 64.8034 22.4256C64.5146 22.4294 64.0782 22.4416 63.4941 22.462L63.3388 26.1708C64.2085 26.1919 65.0852 26.2021 65.9677 26.2021C66.5773 26.2021 67.6061 26.181 69.0534 26.1395C69.0023 26.7734 68.9582 27.5325 68.9198 28.4169C67.2259 28.3958 66.2546 28.3855 66.0073 28.3855C65.2584 28.3855 64.3254 28.4066 63.2085 28.4482L63.0538 32.3556L64.1012 32.3659C64.406 32.3659 65.1044 32.3588 66.1958 32.3448L68.2623 32.3032L69.6432 32.2304C69.5799 33.0387 69.5352 33.8011 69.5096 34.5187C67.8591 34.5046 66.3709 34.4976 65.0443 34.4976L61.9119 34.5078L60.0288 34.518Z" fill="#226AB2"/>
<path d="M71.7852 34.518C71.8797 33.341 71.9948 31.2253 72.1309 28.1708C72.267 25.1164 72.3507 22.4786 72.382 20.2568C73.0427 20.2709 73.513 20.2779 73.7923 20.2779C74.1667 20.2779 74.6242 20.2709 75.1642 20.2568L74.9367 24.0704L74.6051 32.5748L74.5674 34.518C74.0466 34.504 73.605 34.4969 73.2427 34.4969C73.1226 34.4976 72.6363 34.5046 71.7852 34.518Z" fill="#226AB2"/>
<path d="M81.9902 34.5187C82.1104 33.272 82.2017 31.8719 82.265 30.3185L82.4829 25.1989C82.5589 23.3464 82.5966 21.6991 82.5966 20.2568C83.3321 20.2709 83.9571 20.2779 84.4708 20.2779C84.8517 20.2779 85.4063 20.2709 86.1354 20.2568C86.853 21.6288 87.8441 23.4192 89.108 25.627C90.372 27.8347 91.3918 29.6635 92.1669 31.1122L92.5158 21.4166C92.5222 21.1866 92.5254 20.8 92.5254 20.2568C93.1229 20.2709 93.574 20.2779 93.8788 20.2779C93.9996 20.2779 94.4443 20.2709 95.213 20.2568L94.976 24.0908L94.682 30.6521L94.5683 34.518C93.9082 34.504 93.3465 34.4969 92.8833 34.4969C92.5152 34.4969 91.9184 34.504 91.0934 34.518C90.7758 33.8982 90.5349 33.4388 90.3694 33.1391C90.1094 32.6796 89.5534 31.732 88.7029 30.2974C88.1444 29.3504 87.446 28.1383 86.6076 26.6615C85.9916 25.5752 85.4645 24.6276 85.0268 23.8199C84.9763 24.9484 84.8977 27.0411 84.791 30.0987C84.7469 31.3454 84.7124 32.8189 84.6874 34.518C84.09 34.504 83.658 34.4969 83.3909 34.4969C83.1813 34.4982 82.7149 34.5052 81.9902 34.5187Z" fill="#226AB2"/>
<path d="M97.8902 26.2245C97.979 25.7229 98.0346 25.3714 98.0569 25.1695C98.0793 24.9676 98.1189 24.6608 98.1758 24.25C99.0391 24.027 99.8008 23.8704 100.461 23.7797C101.121 23.6889 101.759 23.6436 102.375 23.6436C103.073 23.6436 103.714 23.7324 104.298 23.91C104.882 24.0877 105.339 24.3714 105.669 24.7618C105.998 25.1522 106.164 25.7126 106.164 26.4437C106.164 26.8405 106.113 27.8526 106.012 29.4789C105.912 31.1052 105.851 32.7857 105.833 34.52C105.35 34.5059 104.906 34.4989 104.499 34.4989C104.111 34.4989 103.658 34.5059 103.137 34.52C103.221 33.6771 103.288 32.702 103.339 31.5946L103.464 28.9933C103.223 29.1677 103.039 29.2891 102.911 29.3588C102.784 29.4284 102.642 29.493 102.483 29.5517C102.324 29.6112 102.044 29.7019 101.644 29.8233C101.244 29.9454 100.923 30.0514 100.682 30.1422C100.44 30.2329 100.223 30.3352 100.03 30.4502C99.8359 30.5652 99.6723 30.6943 99.5388 30.8368C99.4052 30.9799 99.3087 31.1294 99.248 31.286C99.1873 31.4425 99.1573 31.6119 99.1573 31.7927C99.1573 32.0854 99.2353 32.3378 99.3905 32.5499C99.5458 32.7627 99.7413 32.9103 99.9759 32.994C100.21 33.0777 100.486 33.1193 100.804 33.1193C101.007 33.1193 101.221 33.102 101.447 33.0669C101.672 33.0324 101.975 32.9448 102.356 32.8055C102.223 33.2023 102.067 33.7947 101.89 34.5813C101.439 34.665 101.081 34.7174 100.814 34.7379C100.546 34.7583 100.3 34.7692 100.071 34.7692C99.2717 34.7692 98.6148 34.651 98.1004 34.4139C97.5866 34.1775 97.2071 33.8011 96.963 33.2854C96.7182 32.7697 96.5962 32.2509 96.5962 31.7288C96.5962 31.4291 96.6441 31.1333 96.7387 30.8406C96.8339 30.5479 96.9738 30.2802 97.1579 30.0361C97.3419 29.7926 97.5802 29.5575 97.8723 29.3306C98.1643 29.1044 98.5867 28.8853 99.1394 28.6725C99.6921 28.4603 100.423 28.2456 101.331 28.0296C101.572 27.9741 101.823 27.9063 102.083 27.8258C102.343 27.7459 102.552 27.6673 102.708 27.5907C102.863 27.514 102.998 27.4149 103.112 27.2929C103.226 27.1708 103.311 27.0437 103.364 26.9114C103.418 26.7791 103.446 26.6437 103.446 26.5037C103.446 26.2321 103.364 26.0021 103.203 25.8142C103.041 25.6264 102.832 25.4954 102.574 25.4225C102.317 25.3497 102.032 25.3126 101.721 25.3126C100.564 25.3158 99.2877 25.6187 97.8902 26.2245Z" fill="#226AB2"/>
<path d="M107.953 34.3219L107.743 32.0234C108.365 32.302 108.892 32.4956 109.323 32.603C109.755 32.711 110.152 32.7646 110.513 32.7646C110.875 32.7646 111.18 32.7173 111.427 32.6234C111.674 32.5295 111.858 32.3902 111.979 32.2055C112.1 32.0208 112.16 31.8279 112.16 31.6259C112.16 31.5352 112.152 31.4521 112.136 31.3754C112.12 31.2988 112.092 31.2189 112.051 31.1352C112.009 31.0515 111.962 30.9735 111.908 30.9C111.854 30.8272 111.78 30.7435 111.685 30.6495C111.589 30.5556 111.453 30.4355 111.275 30.2891L110.761 29.8399C110.266 29.415 109.888 29.0808 109.628 28.8367C109.368 28.5932 109.149 28.344 108.971 28.0897C108.794 27.8354 108.659 27.5676 108.567 27.2852C108.475 27.0034 108.429 26.7159 108.429 26.4232C108.429 25.9146 108.57 25.4308 108.852 24.9708C109.135 24.5113 109.546 24.1752 110.085 23.9624C110.624 23.7503 111.259 23.6436 111.989 23.6436C112.821 23.6436 113.779 23.7515 114.864 23.9675L114.988 26.151C114.252 25.8238 113.544 25.6602 112.865 25.6602C112.497 25.6602 112.175 25.7005 111.899 25.7804C111.623 25.8602 111.424 25.9823 111.304 26.1459C111.184 26.3095 111.123 26.4922 111.123 26.6941C111.123 26.8124 111.143 26.9293 111.18 27.0443C111.219 27.1593 111.285 27.2795 111.38 27.4047C111.476 27.5299 111.585 27.6488 111.709 27.76C111.833 27.8718 112.091 28.091 112.485 28.4182C112.878 28.7453 113.223 29.0418 113.518 29.3064C113.813 29.5709 114.056 29.8374 114.246 30.1058C114.437 30.3741 114.582 30.661 114.684 30.9678C114.786 31.2745 114.836 31.5844 114.836 31.8975C114.836 32.4196 114.69 32.9039 114.398 33.35C114.106 33.796 113.665 34.1442 113.075 34.3947C112.485 34.6452 111.824 34.7711 111.095 34.7711C110.714 34.7711 110.251 34.7379 109.705 34.672C109.159 34.6056 108.574 34.4886 107.953 34.3219Z" fill="#226AB2"/>
<path d="M117.491 26.2245C117.58 25.7229 117.635 25.3714 117.658 25.1695C117.68 24.9676 117.72 24.6608 117.776 24.25C118.64 24.027 119.401 23.8704 120.061 23.7797C120.722 23.6889 121.359 23.6436 121.975 23.6436C122.674 23.6436 123.315 23.7324 123.899 23.91C124.483 24.0877 124.94 24.3714 125.269 24.7618C125.599 25.1522 125.765 25.7126 125.765 26.4437C125.765 26.8405 125.714 27.8526 125.613 29.4789C125.512 31.1052 125.452 32.7857 125.434 34.52C124.95 34.5059 124.506 34.4989 124.1 34.4989C123.712 34.4989 123.258 34.5059 122.738 34.52C122.821 33.6771 122.888 32.702 122.939 31.5946L123.065 28.9933C122.823 29.1677 122.639 29.2891 122.512 29.3588C122.385 29.4284 122.242 29.493 122.083 29.5517C121.924 29.6112 121.645 29.7019 121.245 29.8233C120.845 29.9454 120.524 30.0514 120.283 30.1422C120.041 30.2329 119.824 30.3352 119.63 30.4502C119.437 30.5652 119.273 30.6943 119.139 30.8368C119.006 30.9799 118.909 31.1294 118.849 31.286C118.788 31.4425 118.758 31.6119 118.758 31.7927C118.758 32.0854 118.836 32.3378 118.991 32.5499C119.146 32.7627 119.342 32.9103 119.576 32.994C119.811 33.0777 120.087 33.1193 120.405 33.1193C120.608 33.1193 120.822 33.102 121.047 33.0669C121.272 33.0324 121.576 32.9448 121.957 32.8055C121.823 33.2023 121.668 33.7947 121.49 34.5813C121.04 34.665 120.681 34.7174 120.414 34.7379C120.147 34.7583 119.9 34.7692 119.672 34.7692C118.872 34.7692 118.215 34.651 117.701 34.4139C117.187 34.1775 116.808 33.8011 116.564 33.2854C116.319 32.7697 116.197 32.2509 116.197 31.7288C116.197 31.4291 116.245 31.1333 116.339 30.8406C116.434 30.5479 116.574 30.2802 116.758 30.0361C116.942 29.7926 117.181 29.5575 117.473 29.3306C117.765 29.1044 118.187 28.8853 118.74 28.6725C119.293 28.4603 120.023 28.2456 120.931 28.0296C121.173 27.9741 121.423 27.9063 121.684 27.8258C121.944 27.7459 122.152 27.6673 122.308 27.5907C122.464 27.514 122.599 27.4149 122.713 27.2929C122.827 27.1708 122.911 27.0437 122.965 26.9114C123.019 26.7791 123.046 26.6437 123.046 26.5037C123.046 26.2321 122.965 26.0021 122.803 25.8142C122.642 25.6264 122.432 25.4954 122.175 25.4225C121.917 25.3497 121.633 25.3126 121.322 25.3126C120.165 25.3158 118.888 25.6187 117.491 26.2245Z" fill="#226AB2"/>
<path d="M126.621 39.3142C126.506 38.2695 126.414 37.5174 126.345 37.0573C126.954 37.371 127.529 37.5276 128.068 37.5276C128.233 37.5276 128.401 37.5046 128.573 37.4598C128.744 37.4145 128.903 37.3499 129.049 37.2669C129.144 37.2113 129.241 37.1314 129.339 37.0272C129.437 36.9231 129.572 36.7314 129.744 36.4534C129.915 36.1748 130.064 35.9001 130.191 35.6291C130.292 35.3965 130.397 35.1039 130.505 34.7518L128.524 28.4001L127.077 23.8945C127.743 23.9086 128.222 23.9156 128.514 23.9156C128.85 23.9156 129.292 23.9086 129.838 23.8945C129.971 24.4728 130.095 24.9744 130.209 25.3994L131.115 28.6806C131.394 29.6909 131.594 30.45 131.715 30.9587C131.791 31.2929 131.88 31.7357 131.982 32.2859C132.172 31.652 132.337 31.1363 132.477 30.7395C132.724 30.0149 133.069 29.0468 133.513 27.8346L134.436 25.3374C134.601 24.892 134.769 24.4108 134.94 23.8952C135.511 23.9092 135.946 23.9163 136.245 23.9163C136.518 23.9163 136.975 23.9092 137.617 23.8952L133.951 32.9057L132.362 36.8835C132.139 37.3985 131.927 37.7985 131.724 38.0841C131.559 38.3276 131.378 38.5366 131.181 38.7104C130.991 38.8771 130.788 39.0164 130.572 39.1283C130.299 39.2676 130.004 39.3788 129.686 39.4625C129.324 39.5462 128.96 39.5877 128.591 39.5877C128.382 39.5877 128.09 39.5666 127.715 39.5251C127.341 39.481 126.976 39.4114 126.621 39.3142Z" fill="#226AB2"/>
<path d="M139.054 26.2245C139.143 25.7229 139.198 25.3714 139.221 25.1695C139.243 24.9676 139.282 24.6608 139.339 24.25C140.203 24.027 140.964 23.8704 141.624 23.7797C142.285 23.6889 142.922 23.6436 143.538 23.6436C144.237 23.6436 144.878 23.7324 145.462 23.91C146.046 24.0877 146.503 24.3714 146.832 24.7618C147.162 25.1522 147.328 25.7126 147.328 26.4437C147.328 26.8405 147.277 27.8526 147.176 29.4789C147.075 31.1052 147.015 32.7857 146.997 34.52C146.513 34.5059 146.069 34.4989 145.663 34.4989C145.275 34.4989 144.821 34.5059 144.301 34.52C144.384 33.6771 144.451 32.702 144.502 31.5946L144.628 28.9933C144.386 29.1677 144.202 29.2891 144.075 29.3588C143.948 29.4284 143.805 29.493 143.646 29.5517C143.487 29.6112 143.208 29.7019 142.808 29.8233C142.408 29.9454 142.087 30.0514 141.846 30.1422C141.604 30.2329 141.387 30.3352 141.193 30.4502C140.999 30.5652 140.836 30.6943 140.702 30.8368C140.569 30.9799 140.472 31.1294 140.412 31.286C140.351 31.4425 140.321 31.6119 140.321 31.7927C140.321 32.0854 140.399 32.3378 140.554 32.5499C140.709 32.7627 140.905 32.9103 141.139 32.994C141.374 33.0777 141.65 33.1193 141.968 33.1193C142.171 33.1193 142.385 33.102 142.61 33.0669C142.835 33.0324 143.139 32.9448 143.52 32.8055C143.386 33.2023 143.231 33.7947 143.053 34.5813C142.603 34.665 142.244 34.7174 141.977 34.7379C141.71 34.7583 141.463 34.7692 141.235 34.7692C140.435 34.7692 139.778 34.651 139.264 34.4139C138.75 34.1775 138.371 33.8011 138.127 33.2854C137.882 32.7697 137.76 32.2509 137.76 31.7288C137.76 31.4291 137.808 31.1333 137.902 30.8406C137.997 30.5479 138.137 30.2802 138.321 30.0361C138.505 29.7926 138.744 29.5575 139.036 29.3306C139.328 29.1044 139.75 28.8853 140.303 28.6725C140.856 28.4603 141.586 28.2456 142.494 28.0296C142.736 27.9741 142.986 27.9063 143.247 27.8258C143.507 27.7459 143.715 27.6673 143.871 27.5907C144.027 27.514 144.162 27.4149 144.276 27.2929C144.39 27.1708 144.474 27.0437 144.528 26.9114C144.582 26.7791 144.609 26.6437 144.609 26.5037C144.609 26.2321 144.528 26.0021 144.366 25.8142C144.205 25.6264 143.995 25.4954 143.738 25.4225C143.48 25.3497 143.196 25.3126 142.885 25.3126C141.728 25.3158 140.451 25.6187 139.054 26.2245Z" fill="#226AB2"/>
<path d="M149.307 34.52C149.452 32.9391 149.574 31.1627 149.671 29.1913C149.769 27.22 149.825 25.4545 149.837 23.894C150.422 23.9081 150.889 23.9151 151.238 23.9151C151.651 23.9151 152.089 23.9081 152.553 23.894L152.447 25.6705C152.644 25.3637 152.817 25.1203 152.966 24.9388C153.115 24.758 153.306 24.5803 153.537 24.4059C153.769 24.2321 154.017 24.0921 154.28 23.988C154.543 23.8832 154.838 23.8001 155.165 23.7375C155.493 23.6749 155.834 23.6436 156.189 23.6436C156.754 23.6436 157.295 23.7222 157.813 23.8787C158.33 24.0353 158.748 24.2845 159.065 24.6257C159.382 24.9669 159.592 25.3395 159.693 25.7433C159.795 26.1472 159.846 26.5759 159.846 27.0283C159.846 27.2162 159.836 27.5159 159.817 27.9268L159.62 32.4924C159.595 33.1263 159.579 33.8017 159.573 34.5193C159.071 34.5053 158.642 34.4982 158.286 34.4982C157.803 34.4982 157.317 34.5053 156.828 34.5193C156.879 33.9136 156.942 32.8566 157.019 31.3486C157.095 29.8406 157.133 28.8431 157.133 28.3555C157.133 27.8054 157.054 27.3632 156.895 27.029C156.737 26.6948 156.491 26.4405 156.158 26.266C155.825 26.0922 155.465 26.0047 155.078 26.0047C154.698 26.0047 154.342 26.0845 154.013 26.2449C153.683 26.4053 153.397 26.6385 153.156 26.9446C152.903 27.2584 152.706 27.6443 152.567 28.1044C152.421 28.592 152.313 29.3965 152.243 30.5179C152.179 31.5141 152.128 32.8477 152.09 34.5193C151.601 34.5053 151.158 34.4982 150.765 34.4982C150.365 34.4995 149.879 34.5065 149.307 34.52Z" fill="#226AB2"/>
<path d="M59.2129 48.5672V48.3736C59.7254 48.332 59.7797 48.2905 59.7797 47.7103V45.0514C59.7797 44.4661 59.7254 44.4245 59.2129 44.3881V44.1855H60.9261V44.3881C60.418 44.4252 60.3637 44.4667 60.3637 45.0514V47.7103C60.3637 48.2911 60.418 48.3327 60.9261 48.3736V48.5672H59.2129Z" fill="#226AB2"/>
<path d="M63.0634 48.5654V48.3859C63.42 48.3443 63.4621 48.2894 63.4621 47.8146V46.7181C63.4621 46.2478 63.2902 45.9672 62.9081 45.9672C62.673 45.9672 62.4423 46.1283 62.2531 46.2989V47.8561C62.2531 48.3168 62.287 48.3443 62.648 48.3859V48.5654H61.2627V48.3859C61.678 48.3303 61.7119 48.2983 61.7119 47.8465V46.4919C61.7119 46.0541 61.6697 46.0267 61.3426 45.9621V45.7915C61.641 45.741 61.9637 45.6535 62.2538 45.5244V46.0682C62.3797 45.9666 62.5139 45.8605 62.6736 45.7455C62.85 45.6209 63.0052 45.5474 63.1899 45.5474C63.6851 45.5474 64.0002 45.9302 64.0002 46.5979V47.8561C64.0002 48.3168 64.0379 48.3354 64.3989 48.3859V48.5654H63.0634Z" fill="#226AB2"/>
<path d="M65.1557 45.6259V45.4738C65.1557 45.2572 65.1806 45.0776 65.2228 44.93C65.2649 44.778 65.3742 44.4508 65.718 44.1377C65.9365 43.9255 66.1589 43.806 66.4151 43.7734C66.6375 43.7779 66.8139 43.875 66.9187 44.0041C66.9858 44.0827 66.9902 44.1747 66.9525 44.2623C66.9276 44.3179 66.8854 44.3728 66.8266 44.4233C66.7596 44.4789 66.7046 44.4789 66.6458 44.4092C66.5199 44.2757 66.3353 44.1421 66.1333 44.1421C65.9736 44.1421 65.8816 44.2252 65.8145 44.3447C65.7429 44.4648 65.6803 44.7779 65.6924 45.3447V45.6259H66.4311C66.4688 45.686 66.4394 45.861 66.364 45.9071H65.6924V47.8145C65.6924 48.3122 65.7429 48.3353 66.2298 48.3902V48.5653H64.7096V48.3857C65.1045 48.3442 65.1544 48.3027 65.1544 47.8605V45.9064H64.7135L64.6841 45.8278L64.8604 45.6253H65.1557V45.6259Z" fill="#226AB2"/>
<path d="M68.0061 45.5488C68.8036 45.5488 69.3915 46.2262 69.3915 47.0422C69.3915 48.1297 68.6355 48.6454 68.0017 48.6454C67.1077 48.6454 66.5869 47.908 66.5869 47.1661C66.5869 46.0651 67.4099 45.5488 68.0017 45.5488H68.0061ZM67.9263 45.775C67.5652 45.775 67.2291 46.1757 67.2291 46.9361C67.2291 47.7885 67.5652 48.4109 68.0688 48.4109C68.4298 48.4109 68.7531 48.1438 68.7531 47.1987C68.7531 46.3923 68.4592 45.775 67.9346 45.775H67.9263Z" fill="#226AB2"/>
<path d="M70.7276 46.2766C70.9334 45.9078 71.1896 45.5487 71.4791 45.5487C71.7059 45.5487 71.8567 45.7283 71.8567 45.8944C71.8567 46.051 71.773 46.1896 71.6382 46.2587C71.5628 46.2906 71.5079 46.2772 71.4702 46.2401C71.3737 46.1436 71.3021 46.1021 71.1973 46.1021C71.0375 46.1021 70.849 46.3002 70.7142 46.66V47.8626C70.7142 48.3047 70.7436 48.3463 71.2305 48.3878V48.5674H69.7397V48.3878C70.1174 48.3463 70.1723 48.3047 70.1723 47.8626V46.4663C70.1723 46.0376 70.1385 46.0101 69.7902 45.9551V45.8031C70.1008 45.7475 70.3947 45.6695 70.7142 45.5264V46.2772H70.7276V46.2766Z" fill="#226AB2"/>
<path d="M75.5996 48.566V48.3865C75.9478 48.345 76.0194 48.313 76.0194 47.8338V46.7462C76.0194 46.2395 75.843 45.9672 75.482 45.9672C75.2807 45.9672 75.0539 46.0963 74.8187 46.3034C74.827 46.3864 74.8353 46.4644 74.8353 46.5845V47.8791C74.8353 48.3028 74.8941 48.3443 75.2341 48.3859V48.5654H73.8609V48.3859C74.2347 48.3443 74.289 48.3124 74.289 47.8695V46.7315C74.289 46.2248 74.1171 45.9666 73.7599 45.9666C73.5248 45.9666 73.2941 46.1372 73.1049 46.2982V47.8695C73.1049 48.3028 73.1593 48.3443 73.4449 48.3859V48.5654H72.1011V48.3859C72.5043 48.3443 72.5631 48.3028 72.5631 47.8606V46.4919C72.5631 46.0631 72.542 46.0216 72.1854 45.9621V45.7915C72.4544 45.7455 72.8027 45.658 73.0966 45.5244V46.0771C73.2308 45.9807 73.3657 45.8561 73.5542 45.7314C73.7222 45.6209 73.873 45.5474 74.0705 45.5474C74.3689 45.5474 74.6373 45.7551 74.7676 46.1002C74.9523 45.9525 75.1287 45.8286 75.2801 45.7174C75.4143 45.6254 75.574 45.5468 75.7504 45.5468C76.2456 45.5468 76.5651 45.92 76.5651 46.5973V47.8689C76.5651 48.3156 76.6073 48.3341 76.9683 48.3852V48.5648H75.5996V48.566Z" fill="#226AB2"/>
<path d="M79.2833 48.6454C79.1657 48.6454 79.0315 48.5854 78.9644 48.5119C78.8807 48.4243 78.8424 48.3323 78.813 48.2262C78.5612 48.4013 78.2673 48.6454 78.0909 48.6454C77.6251 48.6454 77.3184 48.2397 77.3184 47.816C77.3184 47.4799 77.4864 47.2767 77.8264 47.1572C78.2251 47.0192 78.6577 46.8441 78.7919 46.7195V46.5993C78.7919 46.1156 78.5906 45.8575 78.2922 45.8575C78.1829 45.8575 78.0909 45.9035 78.0276 45.9776C77.9478 46.0651 77.8935 46.2172 77.8385 46.4338C77.8008 46.554 77.7337 46.6 77.6372 46.6C77.5152 46.6 77.3516 46.462 77.3516 46.3003C77.3516 46.1987 77.4315 46.1163 77.5529 46.0236C77.7337 45.8805 78.1574 45.623 78.5063 45.5488C78.7037 45.5488 78.8839 45.5993 79.027 45.7194C79.2577 45.9316 79.3255 46.2127 79.3255 46.5719V47.784C79.3255 48.0837 79.4347 48.1847 79.5478 48.1847C79.6194 48.1847 79.7031 48.1527 79.7702 48.1112L79.8335 48.2908L79.2833 48.6454ZM78.7919 46.9546C78.666 47.0236 78.4142 47.1527 78.2839 47.2173C78.0404 47.3323 77.9062 47.4658 77.9062 47.715C77.9062 48.0697 78.1497 48.2262 78.3344 48.2262C78.4813 48.2262 78.6826 48.1246 78.7919 48.0051V46.9546Z" fill="#226AB2"/>
<path d="M81.2179 48.5521C81.1048 48.6211 81.0077 48.6441 80.9534 48.6441C80.538 48.6441 80.3067 48.386 80.3067 47.8422V45.9066H79.8824L79.853 45.828L80.0249 45.6255H80.3061V45.1373L80.7636 44.667L80.8473 44.6855V45.6255H81.5445C81.6077 45.699 81.5866 45.8466 81.5023 45.9066H80.8473V47.607C80.8473 48.1508 81.0614 48.2428 81.2166 48.2428C81.3636 48.2428 81.5023 48.1783 81.5943 48.1278L81.6486 48.3118L81.2179 48.5521Z" fill="#226AB2"/>
<path d="M81.9116 48.5645V48.385C82.302 48.3434 82.3481 48.3019 82.3481 47.8322V46.4776C82.3481 46.0539 82.327 46.0213 81.9576 45.9523V45.7913C82.2937 45.7312 82.6081 45.6533 82.8899 45.5331V47.8322C82.8899 48.2974 82.9321 48.3345 83.3308 48.385V48.5645H81.9116ZM82.2388 44.611C82.2388 44.3944 82.3985 44.2334 82.5832 44.2334C82.7679 44.2334 82.9104 44.3944 82.9104 44.611C82.9104 44.8047 82.7679 44.9753 82.5743 44.9753C82.3985 44.9746 82.2388 44.804 82.2388 44.611Z" fill="#226AB2"/>
<path d="M85.0652 45.5488C85.8627 45.5488 86.4506 46.2262 86.4506 47.0422C86.4506 48.1297 85.6946 48.6454 85.0607 48.6454C84.1661 48.6454 83.646 47.908 83.646 47.1661C83.646 46.0651 84.469 45.5488 85.0607 45.5488H85.0652ZM84.9853 45.775C84.6243 45.775 84.2882 46.1757 84.2882 46.9361C84.2882 47.7885 84.6243 48.4109 85.1278 48.4109C85.4889 48.4109 85.8122 48.1438 85.8122 47.1987C85.8122 46.3923 85.5183 45.775 84.9937 45.775H84.9853Z" fill="#226AB2"/>
<path d="M88.5839 48.5654V48.3859C88.9405 48.3443 88.9826 48.2894 88.9826 47.8146V46.7181C88.9826 46.2478 88.8107 45.9672 88.4286 45.9672C88.1935 45.9672 87.9628 46.1283 87.7737 46.2989V47.8561C87.7737 48.3168 87.8075 48.3443 88.1685 48.3859V48.5654H86.7832V48.3859C87.1986 48.3303 87.2324 48.2983 87.2324 47.8465V46.4919C87.2324 46.0541 87.1902 46.0267 86.8631 45.9621V45.7915C87.1615 45.741 87.4842 45.6535 87.7743 45.5244V46.0682C87.9002 45.9666 88.0344 45.8605 88.1941 45.7455C88.3705 45.6209 88.5257 45.5474 88.7104 45.5474C89.2056 45.5474 89.5207 45.9302 89.5207 46.5979V47.8561C89.5207 48.3168 89.5584 48.3354 89.9194 48.3859V48.5654H88.5839Z" fill="#226AB2"/>
<path d="M95.3511 45.2728C95.284 44.9367 95.2169 44.7565 95.1371 44.6415C95.0323 44.485 94.923 44.4338 94.4444 44.4338H94.0163V47.7196C94.0163 48.2544 94.0706 48.3324 94.6668 48.3739V48.5675H92.8066V48.3739C93.3817 48.3324 93.4367 48.2589 93.4367 47.7196V44.4338H93.0712C92.5255 44.4338 92.3951 44.4984 92.3114 44.6415C92.2315 44.7565 92.1772 44.9546 92.0973 45.2728H91.9082C91.9376 44.8351 91.967 44.3878 91.9798 44.0146H92.114C92.2066 44.1853 92.2859 44.1853 92.4705 44.1853H95.015C95.1869 44.1853 95.2457 44.1437 95.3422 44.0146H95.4764C95.4764 44.3233 95.5102 44.8441 95.5396 45.2498L95.3511 45.2728Z" fill="#226AB2"/>
<path d="M97.5645 47.9681C97.1613 48.5259 96.7121 48.6454 96.5108 48.6454C95.7428 48.6454 95.2891 47.9681 95.2891 47.2173C95.2891 46.77 95.436 46.3648 95.6878 46.0651C95.9568 45.7424 96.2968 45.5488 96.6284 45.5488H96.6329C97.1658 45.5488 97.5901 46.0511 97.5901 46.5859C97.5901 46.715 97.5562 46.7751 97.4431 46.8025C97.33 46.8211 96.5492 46.8901 95.8265 46.9176C95.8392 47.7885 96.3051 48.1572 96.7377 48.1572C96.9939 48.1572 97.2329 48.0512 97.4597 47.8211L97.5645 47.9681ZM96.4814 45.8025C96.2124 45.8025 95.944 46.0651 95.8559 46.6275C96.1875 46.6275 96.5191 46.6275 96.8674 46.6134C96.9767 46.6089 97.0144 46.5719 97.0144 46.4843C97.0144 46.1297 96.8131 45.8025 96.4853 45.8025H96.4814Z" fill="#226AB2"/>
<path d="M100.357 47.9451C100.076 48.3457 99.6514 48.6454 99.2865 48.6454C98.4718 48.6454 98.0015 47.954 98.0015 47.2403C98.0015 46.7291 98.2155 46.2728 98.6354 45.9316C98.9798 45.6549 99.3574 45.5488 99.597 45.5488H99.6054C99.8616 45.5488 100.067 45.6319 100.168 45.7284C100.251 45.8019 100.269 45.8619 100.269 45.9361C100.269 46.0926 100.13 46.2447 100.05 46.2447C100.012 46.2447 99.983 46.2262 99.928 46.1661C99.7268 45.968 99.5127 45.876 99.2897 45.876C98.9037 45.876 98.551 46.2172 98.551 46.931C98.551 47.8575 99.1638 48.1566 99.4999 48.1566C99.76 48.1566 99.9702 48.078 100.251 47.7924L100.357 47.9451Z" fill="#226AB2"/>
<path d="M102.295 48.5653V48.3857C102.648 48.3442 102.698 48.2982 102.698 47.8605V46.7684C102.698 46.2106 102.488 45.948 102.102 45.948C101.875 45.948 101.644 46.0681 101.472 46.2751V47.8605C101.472 48.2893 101.51 48.3442 101.867 48.3857V48.5653H100.506V48.3857C100.88 48.3442 100.934 48.3027 100.934 47.8605V44.6578C100.934 44.2342 100.918 44.2105 100.519 44.1696V44.0086C100.813 43.9626 101.216 43.861 101.473 43.7734V46.0361C101.708 45.7876 102.035 45.5479 102.367 45.5479C102.88 45.5479 103.241 45.8892 103.241 46.7141V47.8618C103.241 48.3135 103.287 48.3455 103.644 48.387V48.5666H102.295V48.5653Z" fill="#226AB2"/>
<path d="M105.747 48.5654V48.3859C106.104 48.3443 106.146 48.2894 106.146 47.8146V46.7181C106.146 46.2478 105.974 45.9672 105.592 45.9672C105.357 45.9672 105.126 46.1283 104.937 46.2989V47.8561C104.937 48.3168 104.971 48.3443 105.332 48.3859V48.5654H103.946V48.3859C104.362 48.3303 104.396 48.2983 104.396 47.8465V46.4919C104.396 46.0541 104.353 46.0267 104.026 45.9621V45.7915C104.325 45.741 104.647 45.6535 104.937 45.5244V46.0682C105.063 45.9666 105.197 45.8605 105.357 45.7455C105.534 45.6209 105.689 45.5474 105.874 45.5474C106.369 45.5474 106.684 45.9302 106.684 46.5979V47.8561C106.684 48.3168 106.721 48.3354 107.082 48.3859V48.5654H105.747Z" fill="#226AB2"/>
<path d="M108.842 45.5488C109.639 45.5488 110.227 46.2262 110.227 47.0422C110.227 48.1297 109.471 48.6454 108.837 48.6454C107.943 48.6454 107.422 47.908 107.422 47.1661C107.422 46.0651 108.245 45.5488 108.837 45.5488H108.842ZM108.762 45.775C108.401 45.775 108.065 46.1757 108.065 46.9361C108.065 47.7885 108.401 48.4109 108.905 48.4109C109.266 48.4109 109.589 48.1438 109.589 47.1987C109.589 46.3923 109.295 45.775 108.771 45.775H108.762Z" fill="#226AB2"/>
<path d="M110.5 48.5659V48.3864C110.89 48.3359 110.944 48.2988 110.944 47.8471V44.6859C110.944 44.2297 110.902 44.2156 110.516 44.1747V44.0086C110.852 43.9671 111.255 43.852 111.482 43.7734V47.8471C111.482 48.3033 111.536 48.3448 111.944 48.3864V48.5659H110.5Z" fill="#226AB2"/>
<path d="M113.662 45.5488C114.46 45.5488 115.048 46.2262 115.048 47.0422C115.048 48.1297 114.292 48.6454 113.658 48.6454C112.763 48.6454 112.243 47.908 112.243 47.1661C112.243 46.0651 113.066 45.5488 113.658 45.5488H113.662ZM113.583 45.775C113.221 45.775 112.885 46.1757 112.885 46.9361C112.885 47.7885 113.221 48.4109 113.725 48.4109C114.086 48.4109 114.409 48.1438 114.409 47.1987C114.409 46.3923 114.115 45.775 113.591 45.775H113.583Z" fill="#226AB2"/>
<path d="M118.241 45.683C118.195 45.7891 118.065 45.9687 117.96 46.0287L117.608 46.0102C117.712 46.1533 117.784 46.3604 117.784 46.6C117.784 47.3189 117.217 47.6735 116.667 47.6735C116.549 47.6735 116.44 47.655 116.34 47.6416C116.26 47.7016 116.18 47.8077 116.18 47.8952C116.18 48.0243 116.293 48.1579 116.575 48.1579C116.793 48.1579 117.008 48.1438 117.222 48.1438C117.599 48.1438 118.133 48.2729 118.133 48.9502C118.133 49.6506 117.385 50.3049 116.55 50.3049C115.841 50.3049 115.462 49.8627 115.454 49.48C115.454 49.3189 115.517 49.1899 115.618 49.0927C115.756 48.9496 115.974 48.7745 116.121 48.6454C115.891 48.5719 115.735 48.4243 115.655 48.2767C115.597 48.1802 115.572 48.0511 115.584 47.977C115.84 47.8754 116.041 47.7003 116.138 47.5713C115.844 47.4377 115.588 47.115 115.588 46.6684C115.588 45.8945 116.23 45.5488 116.726 45.5488H116.734C116.94 45.5488 117.141 45.6089 117.339 45.7194C117.657 45.7009 117.981 45.6594 118.212 45.6274L118.241 45.683ZM116.781 48.6691C116.495 48.6691 116.353 48.7106 116.243 48.8071C116.092 48.9502 115.979 49.1253 115.979 49.3049C115.979 49.6595 116.323 49.9592 116.806 49.9592C117.368 49.9592 117.675 49.6365 117.675 49.2263C117.675 48.9911 117.565 48.8205 117.385 48.747C117.222 48.6825 117.045 48.6684 116.789 48.6684H116.781V48.6691ZM116.667 45.761C116.415 45.761 116.172 46.0281 116.172 46.5585C116.172 47.0792 116.394 47.4524 116.734 47.4524C117.003 47.4479 117.234 47.1853 117.234 46.6549C117.234 46.1437 117.02 45.761 116.671 45.761H116.667Z" fill="#226AB2"/>
<path d="M121.402 45.8071C121.071 45.8627 121.016 45.9177 120.848 46.3049C120.693 46.6462 120.492 47.2129 120.059 48.305C119.635 49.3785 119.501 49.7613 119.396 50.1434C119.367 50.2725 119.287 50.3044 119.203 50.3044C119.022 50.3044 118.829 50.1383 118.829 49.9587C118.829 49.8482 118.883 49.7881 118.989 49.7102C119.203 49.5721 119.325 49.4201 119.476 49.1159C119.585 48.8948 119.636 48.7612 119.661 48.6826C119.698 48.581 119.685 48.489 119.648 48.3785C119.383 47.581 119.094 46.7426 118.921 46.3005C118.787 45.9503 118.72 45.8627 118.384 45.8071V45.6276H119.702L119.71 45.8071C119.421 45.8627 119.383 45.9222 119.462 46.1663L120.025 47.8162C120.193 47.3925 120.461 46.595 120.583 46.1893C120.663 45.9407 120.613 45.8621 120.264 45.8065V45.627H121.402V45.8071Z" fill="#226AB2"/>
<path d="M127.509 45.8749C127.073 45.9305 126.98 46.05 126.766 46.3771C126.598 46.6308 126.443 46.9069 126.224 47.257C126.518 47.5522 127.06 48.2111 127.261 48.6213L127.228 48.6858C126.833 48.6584 126.484 48.5063 126.409 48.4187C126.329 48.3267 126.069 48.0181 125.863 47.7829C125.41 48.4187 125.003 48.6584 124.553 48.6584C123.747 48.6584 123.294 48.0181 123.294 47.4232C123.294 46.8059 123.68 46.5567 124.226 46.142C123.945 45.8608 123.777 45.5797 123.777 45.202C123.777 44.5982 124.268 44.124 124.831 44.124C125.36 44.124 125.784 44.5202 125.784 45.064C125.784 45.3451 125.662 45.5247 125.52 45.6538C125.406 45.7599 125.251 45.8794 125.012 46.0544C125.222 46.2436 125.662 46.6442 126.065 47.0819C126.212 46.8468 126.322 46.6212 126.439 46.3311C126.552 46.027 126.498 45.9394 126.053 45.8749L126.058 45.6813H127.51V45.8749H127.509ZM124.743 48.1702C125.137 48.1702 125.515 47.8801 125.708 47.5944C125.36 47.1887 124.965 46.788 124.39 46.2998C124.012 46.5854 123.869 46.8941 123.869 47.2123C123.869 47.8481 124.323 48.1708 124.738 48.1708H124.743V48.1702ZM124.767 44.3592C124.482 44.3592 124.259 44.6403 124.268 45.0276C124.268 45.3777 124.457 45.6084 124.843 45.9215C125.124 45.7004 125.288 45.4333 125.288 45.0691C125.288 44.6819 125.074 44.3592 124.775 44.3592H124.767Z" fill="#226AB2"/>
<path d="M132.624 47.4751C132.581 47.7288 132.46 48.3505 132.405 48.5672H129.323V48.3736C129.89 48.3275 129.944 48.263 129.944 47.7103V45.0699C129.944 44.4526 129.89 44.4341 129.402 44.3881V44.1855H132.249C132.258 44.3606 132.283 44.8079 132.308 45.1856L132.115 45.2131C132.056 44.9319 131.989 44.7753 131.909 44.6277C131.817 44.4801 131.645 44.4341 131.212 44.4341H130.746C130.541 44.4341 130.528 44.4526 130.528 44.6552V46.1664H131.103C131.665 46.1664 131.707 46.1109 131.787 45.6552H131.976V46.978H131.787C131.699 46.4847 131.653 46.4482 131.103 46.4482H130.528V47.6879C130.528 48.0061 130.562 48.1582 130.679 48.2406C130.801 48.3192 131.036 48.3192 131.321 48.3192C131.779 48.3192 131.968 48.2732 132.111 48.0981C132.22 47.955 132.337 47.7205 132.429 47.4483L132.624 47.4751Z" fill="#226AB2"/>
<path d="M134.554 47.2427H133.093L133.176 46.8555H134.646L134.554 47.2427Z" fill="#226AB2"/>
<path d="M138.661 48.566V48.3865C139.009 48.345 139.08 48.313 139.08 47.8338V46.7462C139.08 46.2395 138.904 45.9672 138.543 45.9672C138.342 45.9672 138.115 46.0963 137.88 46.3034C137.888 46.3864 137.896 46.4644 137.896 46.5845V47.8791C137.896 48.3028 137.955 48.3443 138.295 48.3859V48.5654H136.922V48.3859C137.296 48.3443 137.35 48.3124 137.35 47.8695V46.7315C137.35 46.2248 137.178 45.9666 136.821 45.9666C136.586 45.9666 136.355 46.1372 136.166 46.2982V47.8695C136.166 48.3028 136.22 48.3443 136.506 48.3859V48.5654H135.162V48.3859C135.565 48.3443 135.624 48.3028 135.624 47.8606V46.4919C135.624 46.0631 135.603 46.0216 135.246 45.9621V45.7915C135.515 45.7455 135.864 45.658 136.158 45.5244V46.0771C136.292 45.9807 136.427 45.8561 136.615 45.7314C136.783 45.6209 136.934 45.5474 137.132 45.5474C137.43 45.5474 137.698 45.7551 137.829 46.1002C138.013 45.9525 138.19 45.8286 138.341 45.7174C138.475 45.6254 138.635 45.5468 138.811 45.5468C139.307 45.5468 139.626 45.92 139.626 46.5973V47.8689C139.626 48.3156 139.668 48.3341 140.029 48.3852V48.5648H138.661V48.566Z" fill="#226AB2"/>
<path d="M142.342 48.6454C142.225 48.6454 142.091 48.5854 142.024 48.5119C141.94 48.4243 141.901 48.3323 141.872 48.2262C141.62 48.4013 141.326 48.6454 141.15 48.6454C140.684 48.6454 140.377 48.2397 140.377 47.816C140.377 47.4799 140.545 47.2767 140.885 47.1572C141.284 47.0192 141.717 46.8441 141.851 46.7195V46.5993C141.851 46.1156 141.65 45.8575 141.351 45.8575C141.242 45.8575 141.15 45.9035 141.087 45.9776C141.007 46.0651 140.953 46.2172 140.898 46.4338C140.86 46.554 140.793 46.6 140.696 46.6C140.574 46.6 140.411 46.462 140.411 46.3003C140.411 46.1987 140.491 46.1163 140.612 46.0236C140.793 45.8805 141.216 45.623 141.565 45.5488C141.763 45.5488 141.943 45.5993 142.086 45.7194C142.317 45.9316 142.385 46.2127 142.385 46.5719V47.784C142.385 48.0837 142.494 48.1847 142.607 48.1847C142.678 48.1847 142.762 48.1527 142.829 48.1112L142.893 48.2908L142.342 48.6454ZM141.851 46.9546C141.725 47.0236 141.473 47.1527 141.343 47.2173C141.1 47.3323 140.965 47.4658 140.965 47.715C140.965 48.0697 141.209 48.2262 141.393 48.2262C141.54 48.2262 141.742 48.1246 141.851 48.0051V46.9546Z" fill="#226AB2"/>
<path d="M144.059 46.2766C144.265 45.9078 144.521 45.5487 144.811 45.5487C145.037 45.5487 145.188 45.7283 145.188 45.8944C145.188 46.051 145.105 46.1896 144.97 46.2587C144.894 46.2906 144.839 46.2772 144.802 46.2401C144.705 46.1436 144.634 46.1021 144.529 46.1021C144.369 46.1021 144.181 46.3002 144.046 46.66V47.8626C144.046 48.3047 144.075 48.3463 144.562 48.3878V48.5674H143.071V48.3878C143.449 48.3463 143.504 48.3047 143.504 47.8626V46.4663C143.504 46.0376 143.47 46.0101 143.122 45.9551V45.8031C143.432 45.7475 143.726 45.6695 144.046 45.5264V46.2772H144.059V46.2766Z" fill="#226AB2"/>
<path d="M147.562 48.5794C147.276 48.2381 146.886 47.6809 146.558 47.2522C146.483 47.1506 146.432 47.1141 146.378 47.1141C146.353 47.1097 146.323 47.1141 146.285 47.1231V47.856C146.285 48.3033 146.339 48.3353 146.739 48.3857V48.5653H145.294V48.3857C145.71 48.3353 145.752 48.2892 145.752 47.856V44.6859C145.752 44.2482 145.714 44.2112 145.337 44.1696V44.0086C145.631 43.9766 146.008 43.8655 146.286 43.7734V46.9486C146.47 46.9071 146.571 46.8151 146.671 46.7135C146.806 46.5703 146.995 46.2988 147.1 46.1237C147.225 45.9211 147.201 45.8655 146.915 45.8285V45.6444L148.225 45.5844V45.7595C147.801 45.8329 147.641 45.9071 147.402 46.1512C147.238 46.3218 147.133 46.4508 146.877 46.7735C147.008 46.9812 147.654 47.787 147.851 48.0177C148.065 48.2618 148.241 48.3723 148.468 48.3864V48.5659L147.562 48.5794Z" fill="#226AB2"/>
<path d="M150.812 47.9681C150.408 48.5259 149.959 48.6454 149.758 48.6454C148.99 48.6454 148.536 47.9681 148.536 47.2173C148.536 46.77 148.683 46.3648 148.935 46.0651C149.204 45.7424 149.544 45.5488 149.875 45.5488H149.88C150.413 45.5488 150.837 46.0511 150.837 46.5859C150.837 46.715 150.803 46.7751 150.69 46.8025C150.577 46.8211 149.796 46.8901 149.074 46.9176C149.086 47.7885 149.552 48.1572 149.985 48.1572C150.241 48.1572 150.48 48.0512 150.707 47.8211L150.812 47.9681ZM149.729 45.8025C149.459 45.8025 149.191 46.0651 149.103 46.6275C149.435 46.6275 149.766 46.6275 150.114 46.6134C150.224 46.6089 150.261 46.5719 150.261 46.4843C150.261 46.1297 150.06 45.8025 149.732 45.8025H149.729Z" fill="#226AB2"/>
<path d="M152.458 48.5521C152.345 48.6211 152.248 48.6441 152.194 48.6441C151.778 48.6441 151.547 48.386 151.547 47.8422V45.9066H151.123L151.093 45.828L151.265 45.6255H151.546V45.1373L152.004 44.667L152.088 44.6855V45.6255H152.785C152.848 45.699 152.827 45.8466 152.743 45.9066H152.088V47.607C152.088 48.1508 152.302 48.2428 152.457 48.2428C152.604 48.2428 152.743 48.1783 152.835 48.1278L152.889 48.3118L152.458 48.5521Z" fill="#226AB2"/>
<path d="M153.149 48.5645V48.385C153.539 48.3434 153.585 48.3019 153.585 47.8322V46.4776C153.585 46.0539 153.564 46.0213 153.195 45.9523V45.7913C153.531 45.7312 153.845 45.6533 154.127 45.5331V47.8322C154.127 48.2974 154.169 48.3345 154.568 48.385V48.5645H153.149ZM153.477 44.611C153.477 44.3944 153.636 44.2334 153.821 44.2334C154.006 44.2334 154.148 44.3944 154.148 44.611C154.148 44.8047 154.006 44.9753 153.812 44.9753C153.636 44.9746 153.477 44.804 153.477 44.611Z" fill="#226AB2"/>
<path d="M156.651 48.5654V48.3859C157.007 48.3443 157.05 48.2894 157.05 47.8146V46.7181C157.05 46.2478 156.878 45.9672 156.496 45.9672C156.26 45.9672 156.03 46.1283 155.841 46.2989V47.8561C155.841 48.3168 155.874 48.3443 156.235 48.3859V48.5654H154.85V48.3859C155.265 48.3303 155.299 48.2983 155.299 47.8465V46.4919C155.299 46.0541 155.257 46.0267 154.93 45.9621V45.7915C155.228 45.741 155.551 45.6535 155.841 45.5244V46.0682C155.967 45.9666 156.101 45.8605 156.261 45.7455C156.437 45.6209 156.593 45.5474 156.777 45.5474C157.273 45.5474 157.588 45.9302 157.588 46.5979V47.8561C157.588 48.3168 157.625 48.3354 157.986 48.3859V48.5654H156.651Z" fill="#226AB2"/>
<path d="M161.051 45.683C161.005 45.7891 160.875 45.9687 160.77 46.0287L160.418 46.0102C160.522 46.1533 160.594 46.3604 160.594 46.6C160.594 47.3189 160.027 47.6735 159.477 47.6735C159.359 47.6735 159.25 47.655 159.15 47.6416C159.07 47.7016 158.99 47.8077 158.99 47.8952C158.99 48.0243 159.103 48.1579 159.385 48.1579C159.604 48.1579 159.818 48.1438 160.032 48.1438C160.409 48.1438 160.943 48.2729 160.943 48.9502C160.943 49.6506 160.195 50.3049 159.36 50.3049C158.651 50.3049 158.272 49.8627 158.264 49.48C158.264 49.3189 158.327 49.1899 158.428 49.0927C158.566 48.9496 158.784 48.7745 158.931 48.6454C158.701 48.5719 158.545 48.4243 158.465 48.2767C158.407 48.1802 158.382 48.0511 158.394 47.977C158.65 47.8754 158.851 47.7003 158.948 47.5713C158.654 47.4377 158.398 47.115 158.398 46.6684C158.398 45.8945 159.04 45.5488 159.536 45.5488H159.544C159.75 45.5488 159.951 45.6089 160.149 45.7194C160.467 45.7009 160.791 45.6594 161.022 45.6274L161.051 45.683ZM159.591 48.6691C159.305 48.6691 159.163 48.7106 159.053 48.8071C158.902 48.9502 158.789 49.1253 158.789 49.3049C158.789 49.6595 159.133 49.9592 159.616 49.9592C160.178 49.9592 160.485 49.6365 160.485 49.2263C160.485 48.9911 160.375 48.8205 160.195 48.747C160.032 48.6825 159.855 48.6684 159.599 48.6684H159.591V48.6691ZM159.477 45.761C159.225 45.761 158.982 46.0281 158.982 46.5585C158.982 47.0792 159.204 47.4524 159.544 47.4524C159.813 47.4479 160.044 47.1853 160.044 46.6549C160.044 46.1437 159.83 45.761 159.481 45.761H159.477Z" fill="#226AB2"/>
</svg>
